<svg width="17" height="12" viewBox="0 0 17 12" fill="none" xmlns="http://www.w3.org/2000/svg">
    <path
        d="M8.4375 3.09375V3.12305C10.2539 3.12305 11.7188 4.58789 11.7188 6.375C11.7188 8.19141 10.2539 9.65625 8.4375 9.65625C6.62109 9.65625 5.15625 8.19141 5.15625 6.375C5.15625 6.05273 5.21484 5.75977 5.30273 5.4668C5.50781 5.61328 5.80078 5.67188 6.09375 5.67188C6.97266 5.67188 7.73438 4.93945 7.73438 4.03125C7.70508 3.76758 7.64648 3.47461 7.5 3.24023C7.79297 3.15234 8.11523 3.12305 8.4375 3.09375ZM16.7578 5.96484C16.8164 6.08203 16.8457 6.22852 16.8457 6.4043C16.8457 6.55078 16.8164 6.69727 16.7578 6.81445C15.1758 9.91992 12.0117 12 8.4375 12C4.83398 12 1.66992 9.91992 0.0878906 6.81445C0.0292969 6.69727 0 6.55078 0 6.375C0 6.22852 0.0292969 6.08203 0.0878906 5.96484C1.66992 2.85938 4.83398 0.75 8.4375 0.75C12.0117 0.75 15.1758 2.85938 16.7578 5.96484ZM8.4375 10.5938C11.3086 10.5938 13.9746 8.98242 15.3809 6.375C13.9746 3.76758 11.3086 2.15625 8.4375 2.15625C5.53711 2.15625 2.87109 3.76758 1.46484 6.375C2.87109 8.98242 5.53711 10.5938 8.4375 10.5938Z"
        fill="white" />
</svg>
    