<svg width="51" height="76" viewBox="0 0 51 76" fill="none" xmlns="http://www.w3.org/2000/svg">
    <path
        d="M32.996 1.20294C43.2792 5.03528 50.4323 14.7635 50.2242 25.7317C50.1114 31.8747 47.6511 37.7415 43.3485 42.1275C39.4902 46.2546 36.4122 50.7979 35.1289 56.3904C35.1153 56.5293 35.0734 56.6639 35.0058 56.7859C34.9382 56.908 34.8464 57.015 34.736 57.1003C34.6255 57.1855 34.4988 57.2473 34.3636 57.2818C34.2284 57.3163 34.0875 57.3228 33.9497 57.3008C28.0596 57.3008 22.1724 57.3008 16.288 57.3008C16.1523 57.3242 16.0133 57.3203 15.8792 57.2892C15.745 57.258 15.6185 57.2004 15.507 57.1196C15.3954 57.0387 15.3012 56.9365 15.2299 56.8187C15.1585 56.7009 15.1115 56.57 15.0915 56.4338C13.8516 50.8847 10.921 46.3674 7.01064 42.2922C4.41215 39.5954 2.45146 36.3501 1.27284 32.7954C0.0942147 29.2406 -0.272331 25.4669 0.200169 21.7517C0.672668 18.0366 1.97219 14.4747 4.0031 11.3282C6.03401 8.18166 8.74464 5.53057 11.9355 3.56999C14.3345 2.08202 16.9755 1.02561 19.7389 0.448617C22.6955 -0.201667 28.9729 -0.297047 32.996 1.20294ZM40.7994 13.4456C40.8514 10.567 40.8514 10.567 38.0075 10.9052C37.5827 10.9572 37.1405 10.9052 36.7416 11.0266C24.0394 13.6884 17.4846 26.7374 20.4845 36.7431C20.5886 37.0726 20.9007 37.5322 20.3892 37.6969C19.8776 37.8616 19.7996 37.3327 19.6608 37.0033C19.5992 36.7759 19.5557 36.5439 19.5308 36.3096C18.1608 30.7865 11.1638 27.2924 5.91818 29.4773C5.24188 29.7634 5.05112 30.0062 5.38927 30.7085C7.73896 35.3992 11.2679 38.3385 16.7302 38.4339C17.1476 38.4295 17.5606 38.5184 17.9391 38.6941C18.3177 38.8699 18.6521 39.128 18.9181 39.4497C19.184 39.7713 19.3747 40.1483 19.4762 40.5531C19.5777 40.9579 19.5875 41.3803 19.5048 41.7893C18.9325 45.2575 18.9325 45.1882 22.3227 45.1882C23.4845 45.1882 23.814 44.6853 23.7967 43.6708C23.7825 42.1175 23.8723 40.5649 24.0654 39.0235C24.0843 38.6091 24.2241 38.2092 24.4675 37.8734C24.7109 37.5375 25.0474 37.2802 25.4354 37.1333C35.4844 32.4166 40.3572 24.3531 40.8254 13.4456H40.7994Z"
        fill="#00318D" />
    <path
        d="M32.2331 72.3704C28.7649 77.2432 21.187 76.8617 17.9182 73.2895C17.7188 73.0727 17.3026 72.8906 17.528 72.5004C17.6061 72.3704 17.9356 72.3357 18.1523 72.3357H31.3921C31.6088 72.327 31.8343 72.3531 32.2331 72.3704Z"
        fill="#00318D" />
    <path
        d="M24.9759 65.7632C22.1059 65.7632 19.236 65.7632 16.3661 65.7632C15.8025 65.7632 15.0829 65.9973 15.0742 64.9742C15.0742 64.1072 15.4904 63.8384 16.2968 63.8384C22.0771 63.8384 27.8574 63.8384 33.6377 63.8384C34.3486 63.8384 34.8255 64.0118 34.8168 64.8528C34.8082 65.6939 34.2186 65.7719 33.5683 65.7719L24.9759 65.7632Z"
        fill="#00318D" />
</svg>
    