<svg width="85" height="40" viewBox="0 0 85 40" fill="none" xmlns="http://www.w3.org/2000/svg">
    <path
        d="M83.9915 27.3368C83.7956 27.0104 83.9915 26.8554 84.2608 26.7656C84.2703 26.8761 84.2504 26.9872 84.2031 27.0875C84.1558 27.1878 84.0828 27.2739 83.9915 27.3368Z"
        fill="#00318D" />
    <path
        d="M19.4367 25.5498C19.6162 24.946 19.5672 24.4482 18.6696 24.5461C17.772 24.644 17.7231 24.0892 17.8536 23.3792C18.6696 19.34 19.4367 15.3008 20.2282 11.2534C20.3261 10.7312 20.4077 10.209 20.4975 9.68671C20.7015 8.44638 20.4975 6.95311 22.5864 7.14895C23.1087 7.19791 23.7207 6.52878 24.2592 6.14526C27.273 3.95926 30.5119 2.10181 33.9207 0.604589C35.3239 -0.0712593 36.9325 -0.185098 38.4169 0.286361C39.6409 0.669882 40.8649 0.955472 42.1053 1.39611C43.0101 1.76925 44.0202 1.79828 44.9449 1.47772C45.4858 1.27042 46.0647 1.18068 46.6429 1.21445C47.2212 1.24822 47.7856 1.40471 48.2987 1.67355C51.5627 3.30556 54.9165 4.88861 57.6501 7.4427C57.8451 7.65766 58.0833 7.82908 58.349 7.94578C58.6148 8.06248 58.9021 8.12186 59.1924 8.12C60.0655 8.06288 60.3184 8.55246 60.4572 9.30319C61.2895 13.7858 62.1463 18.2629 63.0275 22.7346C63.1418 23.3466 63.3131 23.8688 62.4237 24.0157C61.8525 24.1055 62.032 24.5788 62.0647 24.9786C62.2655 26.2177 62.044 27.4884 61.4357 28.5865C60.8275 29.6845 59.8678 30.5463 58.7109 31.0334C57.8834 31.4716 57.2342 32.1842 56.8749 33.0489C56.5081 33.935 55.8676 34.6806 55.047 35.1768C54.2263 35.673 53.2685 35.8938 52.3134 35.807C52.0935 35.7757 51.8693 35.8065 51.666 35.8959C51.4627 35.9852 51.2884 36.1297 51.1629 36.3129C49.6777 38.3284 47.8989 39.2505 45.4508 37.9449C45.2581 37.8225 45.032 37.763 44.804 37.7747C44.5759 37.7864 44.3571 37.8687 44.1779 38.0102C42.6764 39.4219 41.02 39.1607 39.339 38.4835C38.3271 38.0673 37.5111 37.8388 36.7278 38.9894C36.4595 39.2992 36.0899 39.5037 35.685 39.5664C35.28 39.6292 34.8659 39.5462 34.5164 39.3321C33.529 38.8588 32.4111 38.3692 32.3214 37.0718C32.2642 36.2558 32.1255 36.215 31.3993 36.4598C30.6014 36.6666 29.7607 36.638 28.9788 36.3773C28.1968 36.1167 27.5071 35.6352 26.9929 34.991C26.7736 34.7694 26.6314 34.4832 26.5873 34.1746C26.5432 33.866 26.5996 33.5514 26.748 33.2774C27.0336 32.747 26.9276 32.4614 26.2013 32.6001C25.7403 32.6297 25.2783 32.5611 24.8457 32.3989C24.4132 32.2367 24.02 31.9845 23.6922 31.659C23.3644 31.3335 23.1094 30.9421 22.9441 30.5107C22.7788 30.0793 22.707 29.6178 22.7333 29.1566C22.8394 28.3406 22.7333 28.2182 21.9173 28.2916C20.7831 28.3895 19.3387 26.7493 19.4367 25.5498ZM41.6891 29.0749C42.6534 29.2255 43.5619 29.6249 44.3248 30.2337C46.479 31.5393 48.5598 32.9754 50.8528 34.0689C52.8928 35.0481 54.3126 34.7543 55.7488 32.9836C56.5648 31.9718 56.4995 31.5556 55.3326 30.9681C52.2244 29.3543 49.2811 27.4413 46.5443 25.2561C46.2587 25.0357 45.7283 24.9868 45.8262 24.2442C46.2913 24.4564 46.7238 24.6277 47.1318 24.8399C49.8654 26.2842 52.4358 28.0223 55.1858 29.4585C58.7925 31.3353 61.0528 28.6425 60.8978 25.7456C60.9213 25.4617 60.8552 25.1775 60.7089 24.9331C60.5625 24.6887 60.3432 24.4963 60.0818 24.3829C54.2013 21.2954 48.9815 17.0874 44.7164 11.996C44.0228 11.0658 43.7699 10.364 44.8796 9.45823C45.3152 9.13607 45.6316 8.67854 45.7793 8.15728C45.927 7.63601 45.8975 7.08048 45.6956 6.57774C45.5161 6.98574 45.3856 7.39374 45.1979 7.69566C44.1044 9.69487 40.9547 10.4293 39.698 8.936C39.3227 9.66224 38.9799 10.3722 38.5964 11.0739C36.8175 14.3379 33.6514 15.2845 30.3303 14.444C28.4453 13.9626 28.1924 12.9997 29.3756 11.4493C30.8036 9.59695 32.5743 8.03023 33.7983 5.99838C34.1857 5.38831 34.6967 4.86617 35.2982 4.46561C35.8998 4.06506 36.5785 3.79497 37.2908 3.67277C38.5719 3.38717 39.8286 2.94652 41.0934 2.57116C38.6454 1.29819 36.2545 0.514832 33.6596 1.75516C30.507 3.2717 27.488 5.05147 24.6346 7.07551C24.0911 7.59594 23.4349 7.98405 22.717 8.20974C22.0152 8.33214 21.8031 8.65038 21.6807 9.32766C20.9218 13.4811 20.0976 17.6346 19.2898 21.7799C19.1919 22.2858 18.792 22.8489 19.3632 23.2405C19.6342 23.3954 19.9395 23.4802 20.2516 23.4873C20.5636 23.4945 20.8725 23.4237 21.1503 23.2813C21.4673 23.125 21.7657 22.9334 22.0397 22.7101C22.4641 22.4292 22.9721 22.3026 23.4787 22.3516C23.9853 22.4007 24.4597 22.6223 24.8223 22.9794C25.4996 23.7954 25.2221 24.5543 24.7325 25.2969C24.4714 25.7049 24.1287 26.0639 23.8757 26.4719C23.6228 26.8799 23.0597 27.2226 23.5656 27.5816C24.0716 27.9407 24.1532 27.2308 24.4225 26.986C25.7036 25.8354 26.6991 24.3748 28.2332 23.5016C28.7003 23.2316 29.2489 23.1383 29.779 23.2387C30.3092 23.339 30.7857 23.6263 31.1218 24.0484C31.9378 24.8644 31.5543 25.8028 30.8852 26.6677C29.7509 28.1365 28.6901 29.6706 27.5396 31.27C28.2903 31.3761 28.4861 30.8946 28.7717 30.609C30.0692 29.3361 31.3585 28.0549 32.6151 26.7412C33.2353 26.1047 33.8962 25.4845 34.7938 25.9252C35.2633 26.1411 35.662 26.4857 35.9436 26.9189C36.2253 27.3522 36.3783 27.8565 36.3851 28.3732C36.5156 30.2255 35.2753 31.3842 34.394 32.7388C33.8147 33.6282 33.1782 34.4932 32.558 35.3745L32.8599 35.6193C33.5862 34.893 34.3287 34.175 35.0468 33.4406C35.7649 32.7062 36.6217 32.1513 37.6335 32.698C38.0825 32.9575 38.4327 33.3587 38.6291 33.8386C38.8255 34.3186 38.8571 34.8502 38.7188 35.35C38.4006 37.3411 38.5719 37.5859 40.5875 37.798C40.897 37.8226 41.2081 37.8226 41.5177 37.798C42.1297 37.798 42.9212 37.9367 43.1497 37.2676C43.3782 36.5985 42.6112 36.2803 42.146 35.9049C41.33 35.2521 40.3019 34.9012 39.6409 33.922C40.2366 33.8649 40.5303 34.2239 40.8894 34.4524C42.5671 35.6038 44.368 36.5645 46.2587 37.3166C46.8689 37.5286 47.5277 37.559 48.1549 37.404C48.782 37.2491 49.3507 36.9154 49.792 36.4435C50.5019 35.7988 50.5182 35.2602 49.6043 34.7054C47.8989 33.6854 46.2179 32.6082 44.5859 31.4414C43.4749 30.8046 42.4858 29.9758 41.6646 28.9933L41.6891 29.0749ZM27.2376 31.8412C27.2376 31.8412 27.2376 31.9146 27.2376 31.9228C27.2729 31.9266 27.3085 31.9266 27.3437 31.9228V31.7759L27.2376 31.8412Z"
        fill="#00318D" />
    <path
        d="M80.8737 24.0728C80.9798 24.7011 80.5228 24.8317 80.0577 24.9622C77.4791 25.7374 74.8924 26.48 72.3301 27.3042C71.5141 27.5653 71.2693 27.3042 71.0816 26.5453C69.3843 19.5875 67.6599 12.6379 65.9082 5.69642C65.6144 4.54586 65.8185 3.93385 67.0914 3.62377C69.3273 3.08521 71.506 2.35895 73.7174 1.72247C75.431 1.23287 75.4391 1.2492 75.8553 3.03625L80.2617 21.7554C80.482 22.5061 80.6778 23.2568 80.8737 24.0728Z"
        fill="#00318D" />
    <path
        d="M0.220337 23.7787L0 22.3507C0.742563 22.1222 0.563056 21.4123 0.677297 20.9227C2.25218 14.4355 3.77809 7.94005 5.30402 1.44467C5.46722 0.726583 5.67123 0.343062 6.53619 0.628663C9.11476 1.44467 11.7178 2.13829 14.3127 2.86453C15.3327 3.14197 15.1287 3.88452 14.9737 4.5618C14.0761 8.2991 13.154 12.0364 12.2319 15.7655C11.473 18.85 10.5999 21.9263 9.96342 25.0353C9.67782 26.3817 9.1066 26.4878 7.95603 26.1206C5.39378 25.272 2.79891 24.5457 0.220337 23.7787Z"
        fill="#00318D" />
    <path
        d="M65.2877 26.2762C64.5777 26.3742 64.7246 25.6316 64.6349 25.1991C63.721 20.8335 62.856 16.4516 61.9502 12.0859C61.7136 10.9354 61.477 9.79296 61.2811 8.63423C61.1261 7.75295 61.428 7.59792 62.0971 7.39392C64.8307 6.61871 64.8225 6.57792 65.4835 9.26257C66.7075 14.2402 67.9315 19.226 69.18 24.1873C69.4003 25.0522 69.2371 25.4194 68.364 25.5908C67.4338 25.7866 66.4464 26.0151 65.2877 26.2762Z"
        fill="#00318D" />
    <path
        d="M19.616 7.75277C19.1427 10.1355 18.6857 12.5182 18.2043 14.8928C17.576 18.0099 16.915 21.1189 16.303 24.236C16.148 25.052 15.9032 25.2887 14.9893 25.1173C11.4641 24.4319 11.4968 24.489 12.378 21.0373C13.5449 16.4187 14.6628 11.7838 15.7644 7.16524C15.9766 6.26764 16.2704 5.77803 17.2741 6.16155C17.685 6.33009 18.1202 6.43203 18.5633 6.46349C19.4609 6.47981 19.6976 6.93676 19.616 7.75277Z"
        fill="#00318D" />
    <path
        d="M27.2376 31.8413H27.3356V31.9882C27.3003 31.992 27.2648 31.992 27.2295 31.9882C27.2295 31.9882 27.2458 31.8658 27.2376 31.8413Z"
        fill="#00318D" />
    <path d="M41.6813 29.083L41.5752 28.9688L41.6894 29.0748L41.6813 29.083Z" fill="#00318D" />
</svg>
    