<svg width="59" height="68" viewBox="0 0 59 68" fill="none" xmlns="http://www.w3.org/2000/svg">
    <path d="M44.8984 12.8423L44.9072 12.851L44.8984 12.8423Z" fill="#00318D" />
    <path
        d="M58.3155 35.4331C56.3541 26.4628 51.5941 19.0566 44.8981 12.8509C45.1966 13.7661 45.4422 14.6976 45.6337 15.6409C46.0733 18.5578 45.9972 21.4154 44.1541 23.9433C43.9512 24.2223 43.7314 24.6451 43.3087 24.5182C42.8859 24.3914 42.962 24.0194 42.8775 23.6728C42.2898 21.504 41.5351 19.3841 40.6201 17.3319C37.5258 10.4245 33.1548 4.60774 26.408 0.845456C25.8 0.432942 25.116 0.145542 24.3958 0C24.6032 1.68378 24.6173 3.38574 24.4381 5.07274C23.8885 10.3822 21.8256 15.159 19.2047 19.7329C17.1493 23.265 14.8259 26.6342 12.2551 29.8108C12.0352 30.0813 11.8746 30.5633 11.4096 30.4195C10.9446 30.2758 11.1813 29.7854 11.1391 29.4473C11.0122 28.4496 10.9615 27.435 10.8178 26.4374C10.5215 24.1546 9.76817 21.9548 8.6027 19.9697C8.18929 23.0745 7.2546 26.0872 5.83805 28.8808C4.56141 31.5271 3.18331 34.1226 2.06731 36.8365C-1.87252 46.4409 -0.173138 54.3967 7.09779 60.9828L7.17388 61.0589C11.6888 65.0284 17.5048 67.2007 23.5165 67.1631H32.9518C39.2112 67.2149 45.2561 64.8846 49.861 60.6446C50.233 60.2951 50.5965 59.94 50.9516 59.5793C57.6476 52.841 60.4038 44.7923 58.3155 35.4331ZM30.128 33.9535C30.4289 34.4477 30.5881 35.0151 30.5881 35.5937C30.5881 36.1723 30.4289 36.7397 30.128 37.2339C29.8271 36.7397 29.6679 36.1723 29.6679 35.5937C29.6679 35.0151 29.8271 34.4477 30.128 33.9535ZM14.3603 48.284C14.8571 48.014 15.4119 47.8682 15.9773 47.8594C16.5427 47.8506 17.1018 47.9789 17.6068 48.2333C16.2203 48.7321 16.1949 48.7321 14.3603 48.2587V48.284ZM18.131 39.0855C18.8597 39.2834 19.5331 39.6464 20.099 40.1463C20.6649 40.6462 21.1081 41.2697 21.3944 41.9685C20.0105 41.4064 18.8594 40.3895 18.131 39.0855ZM19.8219 58.0659C20.8449 57.1359 21.4367 56.1468 22.6626 55.8001C22.5254 56.4408 22.1728 57.0151 21.6636 57.4274C21.1544 57.8396 20.5193 58.065 19.8642 58.0659H19.8219ZM30.1111 63.9841C29.8454 63.4366 29.701 62.8381 29.6879 62.2297C29.6747 61.6212 29.7931 61.0171 30.035 60.4586C30.3449 60.989 30.518 61.5882 30.5387 62.2022C30.5593 62.8161 30.4269 63.4256 30.1534 63.9757L30.1111 63.9841ZM30.7621 57.0007C30.5683 57.1646 30.3226 57.2545 30.0688 57.2545C29.815 57.2545 29.5694 57.1646 29.3755 57.0007C26.9292 55.449 24.7363 53.5298 22.874 51.3107C22.3561 50.6666 21.9607 49.9331 21.7073 49.1464C21.3713 48.1888 21.3303 47.1524 21.5895 46.1712C21.8488 45.19 22.3963 44.3092 23.1615 43.6425C24.0574 42.9964 25.1308 42.6424 26.2353 42.6288C27.3399 42.6152 28.4217 42.9426 29.3333 43.5664C30.0266 44.0905 30.4662 43.8369 31.0242 43.4649C31.8368 42.8895 32.8042 42.5728 33.7998 42.5562C34.7954 42.5396 35.7728 42.8239 36.6042 43.3719C38.2275 44.3019 38.7432 45.7899 38.6671 47.5992C38.6543 49.0683 38.1039 50.4819 37.1199 51.5728C35.3952 53.7795 33.0448 55.3182 30.8128 56.9922L30.7621 57.0007ZM37.4327 56.0791C38.9715 56.3159 39.4872 57.2797 40.3073 58.3196C38.9715 57.9899 38.3036 57.2205 37.475 56.0707L37.4327 56.0791ZM38.498 41.495C39.4365 40.0155 39.8592 39.635 41.1528 39.1108C40.9911 39.7157 40.6588 40.2613 40.1956 40.6825C39.7324 41.1038 39.1578 41.3829 38.5403 41.4865L38.498 41.495ZM41.66 47.8782C42.9198 47.1596 43.2241 47.1511 44.5346 47.7345C43.6722 48.3263 43.2072 48.3263 41.7023 47.8697L41.66 47.8782Z"
        fill="#00318D" />
</svg>
    