<svg width="73" height="66" viewBox="0 0 73 66" fill="none" xmlns="http://www.w3.org/2000/svg">
    <path
        d="M24.3729 43.8691C23.379 41.0084 22.3677 38.1563 21.417 35.2782C21.3433 34.7739 21.3433 34.2615 21.417 33.7571C22.0722 33.7205 22.7292 33.7728 23.3703 33.9127C23.7333 34.0337 23.9926 34.5782 24.2346 34.9844C24.6948 35.6931 25.0773 36.4494 25.3754 37.2401C26.862 41.9591 30.5611 44.5346 34.5627 46.799C36.375 47.7331 38.4556 48.0081 40.4484 47.5769C41.5598 47.3909 42.6593 47.1398 43.7413 46.825C46.4119 46.0903 49.0739 45.2433 51.8828 46.4101C51.5053 45.7722 50.9482 45.2598 50.281 44.937C49.6138 44.6141 48.8662 44.4952 48.1318 44.5951C46.0403 44.8026 43.9833 45.2779 41.909 45.6323C40.5175 45.8743 39.1433 46.1508 37.7432 46.315C37.1029 46.3478 36.471 46.1585 35.9542 45.7792L42.1078 42.7888C40.6066 42.4077 39.1338 41.9225 37.7 41.3368C36.5132 40.717 35.4288 39.9183 34.4849 38.9687C34.0486 38.4146 33.7977 37.7373 33.7675 37.0327C33.4996 34.6905 34.1824 34.1633 36.4468 34.7424C39.5409 35.5375 42.6264 36.3327 45.7291 37.0759C46.4165 37.2449 47.1313 37.2714 47.8293 37.1537C48.7828 36.9818 49.7637 37.0438 50.688 37.3343C51.6123 37.6249 52.4523 38.1353 53.136 38.8218C54.2452 39.7639 55.269 40.8022 56.1955 41.9245C57.3709 43.3938 58.434 44.8371 60.3786 45.4853C60.6499 45.5811 60.8981 45.7327 61.1071 45.9304C61.3162 46.1281 61.4814 46.3675 61.5922 46.633C61.7029 46.8985 61.7568 47.1843 61.7502 47.472C61.7436 47.7596 61.6768 48.0427 61.554 48.3029C60.4305 51.6908 59.3155 55.0788 58.0969 58.4235C57.924 58.8989 56.8437 59.5644 56.619 59.4261C53.6545 57.6198 50.3703 58.6223 47.2589 58.2593C42.8684 57.7494 38.4779 57.3 34.096 56.7555C33.4061 56.6599 32.7549 56.3791 32.2118 55.9431C28.9189 53.1428 25.5656 50.4031 22.4542 47.4127C18.9242 44.0193 16.0011 40.0468 13.8114 35.6672C13.6645 35.3733 13.5262 34.8029 13.6645 34.6732C13.9756 34.4053 14.6238 34.0769 14.8485 34.2152C15.5492 34.6145 16.1424 35.178 16.5771 35.8573C17.5019 37.534 18.3056 39.3144 19.3514 40.922C18.7464 39.4873 18.1501 38.0439 17.5451 36.6006C17.1302 35.598 16.6808 34.63 16.3005 33.6102C16.1449 33.1435 16.1277 32.1928 16.3005 32.1496C16.8832 31.9195 17.5275 31.8981 18.1241 32.0891C18.6777 32.4336 19.1074 32.9451 19.3514 33.5497C20.5787 36.1425 21.7282 38.865 22.9209 41.5183C23.3012 42.3826 23.7333 43.1604 24.1395 43.9815L24.3729 43.8691Z"
        fill="#00318D" />
    <path
        d="M22.5487 18.857C23.0237 19.5629 23.6921 20.1168 24.4739 20.4525C25.2556 20.7882 26.1176 20.8914 26.9565 20.7498C28.9011 20.5424 30.8285 20.067 32.7558 19.6781C34.6831 19.2892 36.4895 18.8138 38.5465 19.5744L32.3237 22.5821C32.7803 22.6817 33.2305 22.8087 33.6719 22.9623C35.5592 23.6237 37.3914 24.4328 39.1514 25.3823C40.6553 26.3157 40.9837 27.9751 40.6207 29.7815C40.4306 30.7149 39.9811 31.052 39.0391 30.784C36.55 30.084 34.0868 29.2888 31.5631 28.7789C29.6806 28.442 27.7713 28.2771 25.8589 28.2863C24.237 28.2868 22.676 27.6686 21.4943 26.5577C20.0164 25.2008 18.7459 23.6192 17.3199 22.2364C16.646 21.4942 15.8583 20.864 14.9863 20.3695C13.0157 19.3929 12.4886 18.7015 13.1368 16.6099C14.1566 13.2997 15.3147 10.0241 16.5334 6.76582C16.6976 6.33368 17.7347 5.74597 17.9681 5.90154C20.9757 7.7338 24.3118 6.66211 27.4751 7.08561C31.7533 7.64739 36.0573 8.04495 40.3528 8.57216C41.044 8.64189 41.7022 8.90219 42.2542 9.32408C45.5816 12.1589 48.9696 14.9332 52.0983 17.9668C55.5544 21.3468 58.4409 25.2636 60.646 29.5654C60.8275 29.9284 60.9139 30.7322 60.8016 30.784C60.3408 31.0562 59.7927 31.1399 59.2718 31.0174C58.7244 30.6777 58.2887 30.1849 58.0186 29.6C57.0753 27.5755 56.0311 25.5996 54.8899 23.6797C55.953 26.2207 57.0333 28.753 58.0704 31.3026C58.347 31.9681 59.1249 32.8064 57.9754 33.3337C57.7608 33.4401 57.5265 33.5007 57.2873 33.5118C57.048 33.5229 56.8091 33.4841 56.5856 33.398C56.3622 33.3119 56.159 33.1802 55.9891 33.0114C55.8192 32.8427 55.6862 32.6404 55.5986 32.4175C54.3973 29.9716 53.2823 27.4825 52.1415 25.0107C51.5575 23.6114 50.8306 22.2762 49.9722 21.0264C50.992 23.9303 52.0464 26.8257 53.0144 29.7383C53.2219 30.3519 53.9651 31.2075 52.9021 31.6742C52.6972 31.7726 52.475 31.8296 52.2481 31.842C52.0213 31.8544 51.7942 31.822 51.5798 31.7465C51.3655 31.671 51.1682 31.5541 50.9991 31.4023C50.83 31.2505 50.6925 31.0668 50.5945 30.8618C49.5919 29.0555 48.5893 27.2405 47.7164 25.3737C47.0454 23.6081 45.7595 22.1441 44.0951 21.2511C43.5009 20.9616 42.951 20.5891 42.4616 20.1448C39.0823 17.1458 35.2622 17.1544 31.226 18.4163C28.3567 19.2287 25.5391 20.093 22.5487 18.857Z"
        fill="#00318D" />
    <path
        d="M6.68953 20.2401C8.85022 21.1044 10.259 20.1709 10.4491 17.9497C9.54094 17.7626 8.64365 17.526 7.76125 17.241C6.44213 16.7309 5.1498 16.1539 3.88929 15.5125C3.53493 15.3396 3.34479 14.8384 3.07686 14.484C3.55222 14.4062 4.08808 14.1556 4.49429 14.2939C5.85985 14.7692 7.18217 15.3915 8.53044 15.9533C10.3281 16.7052 11.2875 16.3249 12.0999 14.4926C13.1457 12.1332 14.1396 9.74777 15.1854 7.38829C16.8016 3.72376 16.8534 2.95456 13.5432 1.54579L10.0861 0.232091C9.14407 -0.130905 8.59095 -0.182764 8.10696 0.932152C6.88833 3.72376 5.3672 6.11781 3.94979 8.96128C2.53238 11.8047 1.08039 14.4408 4.43641e-05 17.1719C-0.0172412 17.1978 5.02148 19.5832 6.68953 20.2401Z"
        fill="#00318D" />
    <path
        d="M65.9016 65.096C63.6199 64.1626 61.5802 63.3674 59.5491 62.5032C58.1058 61.8809 57.6736 61.0425 58.2181 59.5906C59.4541 56.2545 60.811 52.9529 62.1247 49.6514C62.2157 49.3663 62.3647 49.1032 62.5624 48.8785C62.76 48.6539 63.002 48.4725 63.2731 48.3459C63.5442 48.2193 63.8386 48.1501 64.1378 48.1427C64.4369 48.1354 64.7343 48.19 65.0114 48.3031C66.9646 48.9513 68.866 49.7551 70.7588 50.5675C70.914 50.67 71.0406 50.8102 71.1268 50.9749C71.213 51.1397 71.2558 51.3237 71.2514 51.5096C69.5229 56.0211 67.7425 60.4548 65.9016 65.096Z"
        fill="#00318D" />
    <path
        d="M63.3867 46.6868C63.9658 43.9471 65.0548 43.3075 67.7081 44.3101C69.1514 44.8632 70.5602 45.4941 72.0295 46.0386C73.6543 46.6004 72.8073 47.577 72.548 48.5105C72.2542 49.5908 71.6838 49.6254 70.7763 49.2278C69.67 48.7265 68.5378 48.2685 67.3883 47.8795C66.2388 47.4906 64.7696 47.0931 63.3867 46.6868Z"
        fill="#00318D" />
</svg>
    