<svg width="61" height="72" viewBox="0 0 61 72" fill="none" xmlns="http://www.w3.org/2000/svg">
    <path
        d="M53.0219 53.6165C53.0219 53.0465 52.9319 52.6165 52.9419 52.1965C53.1119 45.2565 50.0119 40.0365 44.5419 35.9865C42.0288 34.1888 39.6338 32.2315 37.3719 30.1265C34.9755 27.864 33.4232 24.8512 32.9719 21.5865C31.8819 13.9865 38.6219 8.5065 45.8519 11.1765C50.8519 13.0065 54.0719 16.7565 56.5119 21.2465C62.5819 32.4265 60.8619 42.8465 53.5119 53.3365C53.4819 53.4165 53.3519 53.4365 53.0219 53.6165Z"
        fill="#00318D" />
    <path
        d="M48.4024 42.7363C50.4289 45.679 51.523 49.1634 51.5423 52.7363C51.7974 57.6568 50.5525 62.5388 47.9724 66.7363C43.7224 73.6463 36.2523 71.4363 33.2423 66.6463C32.4727 65.5423 32.0659 64.226 32.0784 62.8802C32.091 61.5344 32.5222 60.2258 33.3124 59.1363C34.9924 56.7055 37.4681 54.9372 40.3124 54.1363C45.1124 52.6663 47.2423 49.2363 47.9323 44.5763C47.9923 44.1463 48.0324 43.7063 48.1024 43.2863C48.1524 43.1063 48.2124 43.0163 48.4024 42.7363Z"
        fill="#00318D" />
    <path
        d="M40.8124 3.89612C40.9357 4.73446 40.88 5.5894 40.649 6.40467C40.4181 7.21994 40.0171 7.97704 39.4724 8.62613C39.1268 9.08797 38.6672 9.45212 38.1386 9.68293C37.61 9.91374 37.0305 10.0033 36.4569 9.94278C35.8833 9.8823 35.3352 9.67385 34.8664 9.33786C34.3975 9.00188 34.024 8.54988 33.7824 8.02613C33.2396 7.07288 32.9752 5.9864 33.0194 4.89033C33.0636 3.79425 33.4146 2.73257 34.0324 1.82612C34.3841 1.17235 34.9361 0.64861 35.6075 0.331823C36.2789 0.0150357 37.0341 -0.0781084 37.7624 0.0661062C39.2124 0.346106 40.4724 1.85612 40.8124 3.89612Z"
        fill="#00318D" />
    <path
        d="M41.4625 7.0563C41.1025 4.8763 42.4625 2.51629 44.1625 2.26629C45.6525 2.05629 47.0325 3.2663 47.3425 5.1163C47.7225 7.3563 46.4825 9.67631 44.7525 9.96631C43.2125 10.2363 41.7825 8.9563 41.4625 7.0563Z"
        fill="#00318D" />
    <path
        d="M52.4321 7.65643C52.7721 9.54643 51.5621 11.6564 49.9721 11.8864C49.6608 11.9197 49.346 11.8912 49.0457 11.8026C48.7455 11.714 48.4656 11.567 48.2222 11.3701C47.9788 11.1731 47.7767 10.9301 47.6274 10.6549C47.4781 10.3798 47.3846 10.0778 47.3521 9.76641C47.0421 7.99641 48.2321 5.94643 49.7721 5.62643C50.0817 5.57265 50.399 5.58342 50.7042 5.65808C51.0094 5.73274 51.2959 5.86966 51.5456 6.06027C51.7954 6.25088 52.0031 6.49107 52.1556 6.76574C52.3082 7.04041 52.4023 7.34365 52.4321 7.65643Z"
        fill="#00318D" />
    <path
        d="M56.1123 11.2661C56.2232 12.02 56.0431 12.7878 55.6085 13.4137C55.1739 14.0395 54.5174 14.4766 53.7724 14.6361C53.5328 14.6863 53.2851 14.6829 53.047 14.6261C52.8089 14.5693 52.5863 14.4605 52.3952 14.3076C52.2041 14.1547 52.0491 13.9614 51.9414 13.7416C51.8337 13.5218 51.776 13.2809 51.7724 13.0361C51.7184 12.3289 51.9169 11.6254 52.3325 11.0505C52.748 10.4757 53.3538 10.0667 54.0423 9.89614C54.2686 9.84373 54.5032 9.83798 54.7318 9.87923C54.9604 9.92048 55.1782 10.0079 55.3719 10.1361C55.5656 10.2643 55.7312 10.4306 55.8585 10.6249C55.9858 10.8192 56.0722 11.0374 56.1123 11.2661Z"
        fill="#00318D" />
    <path
        d="M54.9124 16.7364C54.8624 15.0464 55.3924 14.1064 56.6424 14.0264C56.9676 14.076 57.2756 14.2051 57.539 14.4022C57.8024 14.5993 58.0131 14.8584 58.1524 15.1564C58.2118 15.4186 58.2149 15.6904 58.1614 15.9539C58.108 16.2175 57.9992 16.4666 57.8423 16.685C57.6854 16.9033 57.4839 17.0858 57.2512 17.2206C57.0185 17.3553 56.7599 17.4391 56.4924 17.4664C55.9024 17.3964 55.3324 16.8864 54.9124 16.7364Z"
        fill="#00318D" />
    <path
        d="M22.7027 12.5363C25.8327 14.4163 27.4127 18.3763 26.7627 22.3263C26.2002 25.4569 24.6804 28.3359 22.4127 30.5663C20.9872 32.1369 19.3868 33.5394 17.6427 34.7463C10.6427 39.3063 6.59268 45.3963 7.49268 54.1363L7.06269 54.2663C5.89269 52.2663 4.62268 50.4063 3.55268 48.3963C-2.20732 37.6363 -0.897307 25.4563 7.00269 16.8463C8.55061 15.0808 10.4619 13.6707 12.6056 12.7128C14.7493 11.7548 17.0748 11.2716 19.4227 11.2963C19.8124 11.3247 20.1998 11.3781 20.5827 11.4563L19.8527 17.4563C16.3927 17.3763 13.0527 16.9563 10.1027 19.0563C11.5059 18.5665 12.9944 18.3689 14.4768 18.4755C15.9591 18.5821 17.4041 18.9908 18.7227 19.6763C17.8627 20.9963 17.1127 22.2963 16.2027 23.4763C15.9627 23.7863 15.2027 23.7863 14.7427 23.8363C12.9227 24.0463 11.0927 24.1763 9.28269 24.4363C8.70245 24.6442 8.15645 24.9374 7.6627 25.3063L13.8127 25.2563C11.7227 28.5763 9.43268 30.6063 5.61268 30.5063L5.95267 31.0563L8.72269 30.8663L5.90269 38.5363L6.4127 38.7463C6.5727 38.4063 6.76268 38.0663 6.89268 37.7463C8.39961 33.3974 11.2326 29.6306 14.9927 26.9763C17.1842 25.4841 19.0043 23.5093 20.3132 21.2036C21.622 18.898 22.3847 16.3229 22.5427 13.6763C22.5727 13.3363 22.6327 13.0263 22.7027 12.5363Z"
        fill="#00318D" />
    <path
        d="M25.2124 68.7863C25.0024 68.2763 24.7624 67.7863 24.6024 67.3063C23.7593 64.7655 22.0908 62.5796 19.8624 61.0963C17.4324 59.3763 15.2724 57.2663 13.2024 55.4963L14.7924 59.0463L13.0124 59.5363C15.5324 59.0263 17.0124 60.4263 18.6424 62.3363L15.6424 63.2663C16.3001 63.4015 16.9751 63.4319 17.6424 63.3563C20.0124 62.5063 21.1124 63.9063 22.2224 66.1063L18.0224 67.2563V67.5863L22.9124 67.3063C22.9124 67.3063 23.0324 67.3763 23.0624 67.4663C23.9924 70.1263 23.7424 70.5363 20.9624 70.9063C19.507 71.1815 18.0033 71.0349 16.6285 70.4839C15.2536 69.9329 14.0649 69.0004 13.2024 67.7963C9.20237 62.4563 6.88237 52.3263 11.2024 44.4463C11.3524 44.1663 11.5424 43.9163 11.8124 43.4463C12.2624 45.0863 12.6124 46.5863 13.0824 48.0363C13.5332 49.529 14.3577 50.882 15.4777 51.9669C16.5977 53.0519 17.9761 53.8331 19.4824 54.2363C22.3567 54.9497 24.9155 56.5911 26.7624 58.9063C27.3349 59.647 27.7503 60.4968 27.983 61.4037C28.2158 62.3105 28.261 63.2553 28.1159 64.1802C27.9707 65.1051 27.6384 65.9907 27.1392 66.7827C26.6399 67.5747 25.9843 68.2565 25.2124 68.7863Z"
        fill="#00318D" />
    <path
        d="M26.5021 4.24617C26.6621 6.43617 26.3821 8.24617 24.6721 9.55617C24.2305 9.9247 23.6825 10.142 23.1083 10.1762C22.5342 10.2104 21.9642 10.0597 21.482 9.74617C20.6515 9.27599 19.9729 8.57792 19.5264 7.73445C19.0798 6.89098 18.884 5.93734 18.9621 4.98616C18.9845 4.17767 19.1469 3.3792 19.4421 2.62617C19.6671 1.97868 20.0887 1.41762 20.6481 1.02141C21.2074 0.625191 21.8766 0.413588 22.5621 0.416152C23.2168 0.395844 23.8629 0.569068 24.4196 0.914138C24.9763 1.25921 25.419 1.7608 25.6921 2.35615C26.0102 2.96443 26.281 3.59631 26.5021 4.24617Z"
        fill="#00318D" />
    <path
        d="M18.1522 5.78617C18.5322 7.96617 17.5122 9.93619 15.8622 10.2362C14.2122 10.5362 12.8622 9.17619 12.4622 7.23619C12.0522 5.06619 13.0622 3.13618 14.7722 2.82618C16.4822 2.51618 17.7922 3.73617 18.1522 5.78617Z"
        fill="#00318D" />
    <path
        d="M12.363 9.21644C12.673 10.9264 11.973 12.3464 10.693 12.6164C9.21299 12.9364 7.77298 11.7364 7.46298 9.91642C7.19298 8.29642 7.98297 6.79642 9.26297 6.53642C10.543 6.27642 12.053 7.49644 12.363 9.21644Z"
        fill="#00318D" />
    <path
        d="M7.95263 12.8464C8.06263 13.7964 7.95265 14.8464 6.62265 15.0964C5.29265 15.3464 4.02263 14.0964 3.79263 12.6864C3.61263 11.5764 3.93264 10.6864 5.14264 10.4864C5.82561 10.4386 6.50044 10.6581 7.02472 11.0984C7.54899 11.5387 7.88169 12.1654 7.95263 12.8464Z"
        fill="#00318D" />
    <path
        d="M4.98297 16.5965C4.74297 16.9165 4.42297 17.7965 3.92297 17.9065C3.66992 17.9667 3.40656 17.969 3.1525 17.9133C2.89843 17.8576 2.66019 17.7453 2.45551 17.5849C2.25082 17.4244 2.08495 17.2198 1.97025 16.9864C1.85554 16.7529 1.79494 16.4966 1.79297 16.2365C1.79297 15.6565 2.25298 14.6065 2.68298 14.5065C3.86298 14.2065 4.54297 15.0465 4.98297 16.5965Z"
        fill="#00318D" />
</svg>
    