<svg width="12" height="15" viewBox="0 0 12 15" fill="none" xmlns="http://www.w3.org/2000/svg">
    <g clip-path="url(#clip0_1659_551)">
        <path
            d="M11.4817 6.09968H0.482353C0.524273 6.3859 0.550683 6.67212 0.608113 6.9473C0.766073 7.71659 1.0982 8.44175 1.58024 9.06983C1.63012 9.13607 1.68797 9.23339 1.67246 9.30003C1.65401 9.37854 1.56766 9.48485 1.49556 9.49753C1.44656 9.50159 1.39727 9.49434 1.35168 9.47637C1.30609 9.4584 1.26548 9.43021 1.23314 9.39408C1.00384 9.05961 0.762378 8.72637 0.586314 8.3645C-1.03557 5.03085 0.853764 1.11045 4.5184 0.184318C7.75882 -0.633454 11.1166 1.35823 11.8431 4.54918C12.2396 6.29145 11.8896 7.8951 10.8123 9.34215C10.7649 9.40553 10.697 9.48689 10.6299 9.49507C10.5364 9.50179 10.4438 9.47358 10.3708 9.41616C10.282 9.34256 10.3 9.23216 10.3662 9.1373C10.4786 8.97701 10.5972 8.82041 10.7016 8.65563C11.1665 7.91644 11.4391 7.07758 11.4956 6.21212C11.497 6.18666 11.497 6.16113 11.4956 6.13566C11.4927 6.12309 11.4881 6.11097 11.4817 6.09968ZM5.74205 3.08291C5.71879 3.07831 5.69527 3.07504 5.67162 3.0731C5.00635 3.0731 4.34108 3.0731 3.67623 3.07024C3.57814 3.07024 3.55047 3.11563 3.53287 3.1929C3.42346 3.72446 3.30105 4.24988 3.20715 4.78184C3.15978 5.05048 3.16188 5.32729 3.14133 5.61106H5.74037L5.74205 3.08291ZM6.25515 3.07228V5.61106H8.83322C8.83983 5.59432 8.84447 5.5769 8.84706 5.55913C8.82513 4.75172 8.69491 3.95058 8.45972 3.17614C8.42786 3.07351 8.36875 3.07106 8.28617 3.07147C7.77279 3.07147 7.25941 3.07147 6.74603 3.07147L6.25515 3.07228ZM0.491994 5.61065H2.63746C2.67938 5.17887 2.70453 4.75567 2.76741 4.33779C2.83029 3.9199 2.93215 3.50202 3.01893 3.07269C2.46223 3.07269 1.90721 3.07024 1.35261 3.07719C1.30734 3.07719 1.24404 3.13607 1.2214 3.18227C1.07594 3.47626 0.924609 3.76862 0.804718 4.07242C0.615895 4.5653 0.510282 5.08479 0.491994 5.61065ZM8.97617 3.07228C9.06462 3.50407 9.16691 3.91582 9.22769 4.33329C9.28847 4.75076 9.31404 5.18214 9.35345 5.60779H11.4914C11.4948 5.58846 11.4967 5.56892 11.4972 5.54932C11.4498 4.70537 11.1949 3.88495 10.754 3.15733C10.7259 3.11113 10.6379 3.07555 10.5775 3.07555C10.1378 3.0686 9.69719 3.07187 9.25871 3.07187L8.97617 3.07228ZM8.24886 2.5898C7.95542 1.91227 7.60707 1.30426 7.02312 0.853665C6.80261 0.676697 6.53891 0.558377 6.25766 0.510201V2.59184L8.24886 2.5898ZM5.74792 0.512246C4.93467 0.61692 4.11304 1.60193 3.77516 2.58285H5.74792V0.512246ZM7.68587 0.753488C8.17047 1.27318 8.50457 1.87465 8.76699 2.51988C8.78208 2.55709 8.86131 2.5898 8.91119 2.59062C9.35093 2.59593 9.79151 2.59389 10.23 2.59348C10.2681 2.59348 10.3063 2.58612 10.3667 2.58039C9.64689 1.69597 8.76657 1.08264 7.68378 0.755533L7.68587 0.753488ZM1.64018 2.57426C1.65921 2.58229 1.67901 2.58845 1.69929 2.59266C2.17047 2.59266 2.64165 2.59021 3.11241 2.59634C3.21386 2.59634 3.22769 2.53664 3.26039 2.47367C3.44651 2.10936 3.6209 1.73768 3.82924 1.38604C3.96255 1.16115 4.14741 0.965292 4.32557 0.73468C3.26063 1.0695 2.32448 1.71079 1.64018 2.57426Z"
            fill="white" />
        <path
            d="M8.27157 13.7929H8.54615V13.564C8.54615 13.1551 8.54615 12.7462 8.54615 12.3373C8.54615 12.1635 8.63921 12.054 8.78258 12.0486C8.92594 12.0433 9.0341 12.157 9.0341 12.3377C9.03703 12.7621 9.0341 13.1866 9.0341 13.611V13.7884H9.3028V13.6179C9.3028 13.0248 9.3028 12.4318 9.3028 11.8389C9.30112 11.798 9.30196 11.757 9.30532 11.7162C9.32292 11.5768 9.42437 11.486 9.55684 11.4893C9.6893 11.4926 9.78488 11.5858 9.79452 11.7281C9.80165 11.8287 9.79452 11.9301 9.79452 12.0282C10.0301 12.0548 10.0645 12.0282 10.0653 11.818C10.0653 11.542 10.0716 11.266 10.0653 10.99C10.0439 10.2671 9.53168 9.76623 8.79222 9.73761C8.08293 9.70981 7.57654 9.1942 7.59834 8.51667C7.61511 7.95323 8.09257 7.45725 8.66436 7.40982C9.28897 7.35789 9.84567 7.75615 9.95927 8.33513C10.0335 8.71212 9.93663 9.04291 9.68469 9.33363C9.65744 9.36471 9.62978 9.39537 9.60295 9.42645C9.60002 9.43013 9.60043 9.43626 9.59708 9.44975C10.0163 9.67791 10.3311 10.0046 10.4636 10.4638C10.516 10.6714 10.5453 10.8839 10.5512 11.0976C10.5659 11.3429 10.555 11.5882 10.5545 11.8336C10.5545 12.2707 10.3215 12.5086 9.87752 12.5287C9.85698 12.5287 9.8356 12.5328 9.79368 12.5373V12.7008C9.79368 13.1199 9.79368 13.539 9.79368 13.9581C9.79368 14.2035 9.71446 14.2828 9.46839 14.2832H8.10054C7.85992 14.2832 7.78446 14.2084 7.78404 13.9696C7.78404 13.5915 7.78404 13.2133 7.78404 12.8349V12.6865L7.25418 12.7274V12.8909C7.25418 13.489 7.25418 14.0871 7.25418 14.6851C7.25418 14.9202 7.17579 15 6.936 15.0004C6.31223 15.0023 5.68861 15.0023 5.06512 15.0004C4.8136 15.0004 4.73688 14.9252 4.73646 14.681C4.73646 14.0876 4.73646 13.4945 4.73646 12.9016V12.727L4.20618 12.6861V13.9254C4.20618 14.2239 4.14497 14.2832 3.83938 14.2832H2.52016C2.2808 14.2832 2.19737 14.2035 2.19696 13.972C2.19696 13.4977 2.19696 13.023 2.19696 12.5409C2.0997 12.5291 2.01209 12.5246 1.92741 12.5066C1.67212 12.453 1.45875 12.2531 1.4491 12.0016C1.43276 11.5886 1.41976 11.1712 1.4621 10.7615C1.52246 10.1714 1.86704 9.74538 2.40572 9.44812L2.30972 9.33731C1.93244 8.91166 1.90729 8.32613 2.24391 7.88127C2.40389 7.66971 2.63251 7.51713 2.89263 7.44832C3.15275 7.37951 3.42908 7.39851 3.67673 7.50223C4.176 7.70994 4.47824 8.24926 4.3835 8.76405C4.2808 9.31155 3.81968 9.72902 3.24956 9.73189C2.62915 9.73516 2.08587 10.1363 1.95843 10.7173C1.93808 10.8227 1.92797 10.9298 1.92825 11.0371C1.92448 11.2975 1.92615 11.5584 1.92825 11.8193C1.92825 12.029 1.9622 12.056 2.19779 12.0311C2.19779 11.9427 2.19528 11.852 2.19779 11.7612C2.20324 11.5976 2.29631 11.4946 2.43632 11.4901C2.57633 11.4856 2.68784 11.5935 2.68784 11.7628C2.69077 12.3762 2.68784 12.9895 2.68784 13.6028V13.7954H2.95654V13.0377C2.95654 12.8075 2.95654 12.5777 2.95654 12.3475C2.95654 12.1623 3.05338 12.0515 3.20178 12.0515C3.35017 12.0515 3.44533 12.1644 3.44617 12.3475C3.44617 12.7715 3.44617 13.196 3.44617 13.6204V13.7966H3.72075V13.6106C3.72075 12.7568 3.71781 11.9031 3.72075 11.0493C3.7241 10.2369 4.08042 9.60717 4.76581 9.14881C4.90792 9.05395 5.03032 9.04945 5.18501 9.1345C5.71949 9.42931 6.26528 9.42931 6.80018 9.1345C6.95403 9.05027 7.07602 9.05027 7.21938 9.14554C7.8683 9.57774 8.24223 10.1678 8.26025 10.9381C8.28079 11.8221 8.26696 12.7069 8.2678 13.5914L8.27157 13.7929ZM5.75135 14.5163V14.0546C5.75135 13.6253 5.75135 13.196 5.75135 12.7666C5.75135 12.5937 5.84734 12.4837 5.99029 12.4804C6.13324 12.4771 6.23846 12.5904 6.24181 12.7703C6.24181 12.8059 6.24181 12.8419 6.24181 12.8774V14.5183H6.76665V14.3335C6.76665 13.4852 6.76665 12.6366 6.76665 11.7878C6.76665 11.6001 6.85929 11.4913 7.00811 11.4909C7.15692 11.4905 7.25082 11.6001 7.2525 11.7849C7.2525 11.9313 7.2525 12.0777 7.2525 12.2298H7.43233C7.70104 12.2298 7.7853 12.1455 7.78572 11.8785C7.78572 11.5768 7.7941 11.275 7.7832 10.9737C7.7635 10.4323 7.53169 9.99235 7.10117 9.64725C7.07607 9.62245 7.04311 9.60666 7.00765 9.60243C6.97219 9.5982 6.93631 9.60578 6.90582 9.62394C6.30092 9.90035 5.69014 9.90035 5.08692 9.62394C5.05638 9.60583 5.02047 9.59831 4.98501 9.60262C4.94955 9.60692 4.91662 9.6228 4.89157 9.64766C4.57675 9.89789 4.32481 10.2058 4.27325 10.5967C4.21247 11.0599 4.22169 11.5326 4.21414 12.0012C4.21205 12.1239 4.30217 12.2106 4.4338 12.2245C4.53462 12.2296 4.63565 12.2296 4.73646 12.2245C4.73646 12.0495 4.73269 11.8916 4.73646 11.7338C4.74108 11.5858 4.84546 11.4885 4.98212 11.4885C5.11207 11.4909 5.20597 11.5841 5.21896 11.7268C5.22357 11.778 5.22148 11.8291 5.22148 11.8802C5.22148 12.6979 5.22148 13.5157 5.22148 14.3335V14.5142L5.75135 14.5163ZM9.49438 8.57719C9.49548 8.48654 9.47818 8.39656 9.44347 8.31246C9.40876 8.22836 9.35732 8.1518 9.29213 8.08718C9.22693 8.02256 9.14927 7.97117 9.06361 7.93597C8.97795 7.90077 8.886 7.88245 8.79306 7.88208C8.60507 7.88262 8.42491 7.95559 8.29183 8.08509C8.15874 8.2146 8.08351 8.39015 8.08251 8.57351C8.08381 8.75409 8.15762 8.92699 8.28811 9.0551C8.41859 9.18322 8.59535 9.25635 8.78048 9.2588C8.87356 9.26093 8.96613 9.24487 9.05274 9.21155C9.13935 9.17823 9.21824 9.12835 9.28477 9.06482C9.35131 9.0013 9.40413 8.92543 9.44013 8.84168C9.47612 8.75793 9.49457 8.668 9.49438 8.57719ZM2.50088 8.57719C2.50085 8.66779 2.51938 8.75749 2.55538 8.84101C2.59137 8.92453 2.64411 9.0002 2.71049 9.06358C2.77687 9.12695 2.85556 9.17676 2.94194 9.21007C3.02832 9.24339 3.12065 9.25954 3.21351 9.25758C3.39864 9.25491 3.57535 9.18166 3.7058 9.0535C3.83625 8.92534 3.91008 8.75246 3.91148 8.57187C3.91037 8.38823 3.8348 8.21248 3.70128 8.083C3.56775 7.95353 3.38712 7.88085 3.19884 7.88086C3.10602 7.8816 3.01426 7.90025 2.92886 7.93572C2.84346 7.9712 2.76609 8.0228 2.70122 8.08756C2.63634 8.15232 2.58524 8.22896 2.55086 8.31306C2.51648 8.39716 2.49949 8.48707 2.50088 8.5776V8.57719Z"
            fill="white" />
        <path
            d="M5.98964 9.13184C5.62655 9.13043 5.27884 8.9887 5.02268 8.7377C4.76653 8.4867 4.62282 8.14689 4.62305 7.79273C4.62648 7.43594 4.77491 7.09506 5.03577 6.84492C5.29662 6.59477 5.64858 6.45581 6.01437 6.45854C6.37462 6.46376 6.71848 6.60628 6.97239 6.85562C7.22629 7.10496 7.37008 7.44131 7.37299 7.79273C7.37289 7.96942 7.33696 8.14434 7.26727 8.30743C7.19758 8.47052 7.09552 8.61855 6.96694 8.74301C6.83837 8.86747 6.68583 8.9659 6.5181 9.03263C6.35038 9.09936 6.17078 9.13308 5.98964 9.13184ZM5.11519 7.78251C5.11336 7.89635 5.13459 8.00942 5.17768 8.11524C5.22076 8.22106 5.28484 8.31754 5.36624 8.39914C5.44764 8.48074 5.54476 8.54586 5.65203 8.59076C5.75929 8.63567 5.87459 8.65947 5.99131 8.6608C6.22415 8.66158 6.44794 8.57291 6.61426 8.41398C6.78058 8.25504 6.87605 8.03862 6.88002 7.81154C6.88224 7.69775 6.86125 7.58467 6.81827 7.47887C6.77529 7.37306 6.71117 7.27665 6.62965 7.19523C6.54813 7.11381 6.45082 7.04901 6.3434 7.0046C6.23597 6.96018 6.12057 6.93705 6.00389 6.93652C5.88856 6.93507 5.77407 6.9558 5.66697 6.99754C5.55987 7.03928 5.46225 7.10121 5.37971 7.17979C5.29717 7.25836 5.23132 7.35204 5.18593 7.45546C5.14054 7.55888 5.1165 7.67002 5.11519 7.78251Z"
            fill="white" />
    </g>
    <defs>
        <clipPath id="clip0_1659_551">
            <rect width="12" height="15" fill="white" />
        </clipPath>
    </defs>
</svg>
    