<svg width="17" height="17" viewBox="0 0 17 17" fill="none" xmlns="http://www.w3.org/2000/svg">
    <g clip-path="url(#clip0_1659_548)">
        <path
            d="M-0.00195312 4.94123C0.373021 4.55798 0.744896 4.17207 1.1243 3.79283C1.22258 3.69424 1.36867 3.71023 1.4674 3.80704C1.57675 3.91362 1.58383 4.04285 1.47714 4.1623C1.38859 4.26134 1.2912 4.35237 1.1969 4.44563C1.1026 4.53889 1.00786 4.62993 0.887005 4.74805H6.12779C6.10167 4.677 6.08086 4.61483 6.0574 4.5571C5.8263 3.96424 5.67047 3.35807 5.67401 2.71326C5.68198 1.33082 6.5913 0.258802 7.95706 0.04875C8.94872 -0.103571 9.85274 0.0931585 10.5987 0.803694C11.0817 1.2651 11.307 1.85129 11.3513 2.5112C11.3991 3.21774 11.2362 3.88786 10.983 4.53978C10.9595 4.60106 10.9347 4.6619 10.8944 4.75915H11.11C12.2549 4.75915 13.4006 4.78003 14.545 4.75383C15.9431 4.7223 16.8785 5.76811 16.9755 6.81127C16.9807 6.83259 16.9889 6.85307 16.9998 6.87211V7.30731C16.9881 7.33784 16.9785 7.36915 16.971 7.40101C16.8108 8.36601 16.2694 9.0157 15.3428 9.31058C15.0696 9.39939 14.7672 9.40916 14.4773 9.41716C14.4408 9.42008 14.4041 9.41521 14.3697 9.40286C14.3353 9.39052 14.3038 9.37098 14.2775 9.34555C14.2511 9.32011 14.2304 9.28935 14.2168 9.25531C14.2031 9.22126 14.1969 9.1847 14.1984 9.14804C14.2046 9.01748 14.3113 8.91712 14.4839 8.89758C14.5817 8.88603 14.6822 8.90158 14.781 8.89447C15.785 8.82164 16.5044 8.01252 16.4721 6.99468C16.442 6.05144 15.646 5.28495 14.6756 5.28051C13.3807 5.27429 12.0858 5.28051 10.7913 5.27651C10.7512 5.27309 10.711 5.28245 10.6765 5.30326C10.642 5.32407 10.6149 5.35527 10.5991 5.39242C10.3728 5.7989 10.1421 6.20287 9.90719 6.60433C9.7819 6.81704 9.64156 7.01999 9.49945 7.23937C9.56674 7.27001 9.6212 7.29532 9.67654 7.31975C10.8373 7.83799 11.9968 8.3589 13.1598 8.87404C13.3417 8.95398 13.4183 9.06367 13.4174 9.26661C13.4103 10.4599 13.4139 11.6536 13.4139 12.8468V13.0444H13.6233C14.6247 13.0444 15.6265 13.0467 16.6279 13.0418C16.7829 13.0418 16.9086 13.0755 17.0003 13.2048V13.4046C16.902 13.5378 16.7696 13.5667 16.6098 13.5658C15.6137 13.56 14.6176 13.5627 13.622 13.5627H13.4183C13.4183 13.9148 13.413 14.247 13.4183 14.5788C13.4227 14.7697 13.347 14.8847 13.1704 14.9633C11.6796 15.6247 10.191 16.2897 8.70435 16.9582C8.64509 16.9873 8.57998 17.0024 8.51398 17.0024C8.44799 17.0024 8.38288 16.9873 8.32362 16.9582C6.85206 16.2956 5.38094 15.6317 3.90362 14.9824C3.68227 14.8847 3.60745 14.7524 3.61542 14.5255C3.62693 14.2106 3.61852 13.8953 3.61852 13.5622H3.4224C3.05141 13.5622 2.68086 13.5693 2.31031 13.5591C1.23542 13.5303 0.358411 12.8522 0.08039 11.8414C0.0498431 11.7304 0.0254952 11.6194 -0.00150998 11.5057V10.9368C0.0110675 10.9072 0.0215701 10.8768 0.0299219 10.8458C0.215417 9.90831 0.757292 9.27993 1.66794 8.9975C1.92693 8.91667 2.2107 8.9038 2.48518 8.88692C2.6937 8.87404 2.84245 9.00771 2.83935 9.1587C2.83625 9.30969 2.6875 9.42515 2.4781 9.4287C2.41789 9.4287 2.35724 9.41671 2.29659 9.41671C1.33414 9.41671 0.541693 10.2121 0.516901 11.2028C0.492995 12.1678 1.2695 13.008 2.22487 13.0364C2.66138 13.0493 3.09878 13.0404 3.53573 13.0404C3.56364 13.0374 3.5912 13.0317 3.61807 13.0236V12.8335C3.61807 11.6516 3.61807 10.4696 3.61807 9.28748C3.61807 9.08321 3.69599 8.94998 3.893 8.86338C4.8643 8.43662 5.83073 7.99919 6.79849 7.56488C7.04286 7.45519 7.28547 7.34284 7.50461 7.24425C7.13805 6.60832 6.78078 5.98394 6.41422 5.36489C6.38544 5.31604 6.29115 5.28229 6.2274 5.28184C4.50113 5.2774 2.7753 5.27637 1.04992 5.27873C1.00875 5.27873 0.96802 5.28451 0.895416 5.28984C1.10482 5.49944 1.29385 5.68374 1.47758 5.8747C1.58649 5.98882 1.57896 6.11983 1.47182 6.22996C1.36469 6.3401 1.22656 6.34765 1.11766 6.23973C0.741797 5.86537 0.371693 5.48479 -0.000625054 5.10776L-0.00195312 4.94123ZM12.8995 9.56548C12.8459 9.58547 12.8202 9.59346 12.7959 9.60412C11.4908 10.1897 10.1852 10.7744 8.87922 11.3583C8.77297 11.4053 8.76766 11.4724 8.7681 11.5656C8.7681 13.1075 8.7681 14.6497 8.7681 16.1921C8.7681 16.2401 8.77253 16.288 8.77563 16.3555C8.84469 16.3276 8.90003 16.3071 8.95271 16.2827C10.2127 15.7183 11.4717 15.1512 12.7339 14.5907C12.8592 14.5352 12.9003 14.4686 12.8999 14.3323C12.895 12.8069 12.8968 11.2814 12.8968 9.75821L12.8995 9.56548ZM8.25102 16.3502C8.255 16.2885 8.25899 16.2552 8.25899 16.2223C8.25899 14.6627 8.26002 13.1031 8.26208 11.5434C8.26208 11.4351 8.22047 11.3907 8.12927 11.3494C6.83745 10.7724 5.54651 10.1934 4.25646 9.61255C4.21645 9.59786 4.17566 9.58541 4.13427 9.57525V9.77109C4.13427 11.2863 4.13427 12.8015 4.13029 14.3167C4.13029 14.4691 4.1781 14.5388 4.31313 14.5987C5.5713 15.1565 6.82756 15.718 8.0819 16.2831C8.12971 16.3049 8.18018 16.3222 8.25057 16.3502H8.25102ZM8.53214 7.71543C8.54352 7.6867 8.55745 7.65906 8.57375 7.63282C9.13245 6.94183 9.64555 6.21975 10.0577 5.43017C10.4606 4.65746 10.766 3.85455 10.8054 2.96905C10.871 1.54576 9.95766 0.494611 8.5981 0.467522C7.00966 0.435548 6.06094 1.77713 6.18932 3.10982C6.22164 3.442 6.31815 3.77595 6.43016 4.09125C6.82151 5.1988 7.44086 6.18333 8.10891 7.139C8.23773 7.32374 8.37498 7.50226 8.53169 7.71543H8.53214ZM12.5214 9.15826C11.918 8.88736 11.3495 8.6298 10.7776 8.38022C10.7166 8.36348 10.6517 8.3698 10.5952 8.39798C9.34318 8.95516 8.09238 9.51471 6.84276 10.0766C6.80557 10.0935 6.77193 10.1188 6.71969 10.1499C7.28547 10.403 7.83133 10.6437 8.37365 10.892C8.41937 10.9156 8.47007 10.9279 8.52151 10.9279C8.57295 10.9279 8.62365 10.9156 8.66938 10.892C9.48396 10.5212 10.3016 10.157 11.1176 9.78974C11.5753 9.58502 12.0326 9.37852 12.5209 9.15826H12.5214ZM7.84107 7.67057L4.50615 9.1587C4.99888 9.38074 5.4593 9.58058 5.9144 9.79241C5.96251 9.81684 6.01575 9.82935 6.06967 9.82889C6.12359 9.82842 6.17662 9.815 6.2243 9.78974C7.23633 9.33189 8.25057 8.87937 9.26393 8.42463C9.52425 8.30783 9.78367 8.18838 10.067 8.05915L9.17805 7.66569C9.04878 7.84554 8.92526 8.02096 8.79688 8.19415C8.61714 8.43617 8.43961 8.43884 8.24925 8.20125C8.11201 8.02895 7.98008 7.85176 7.84063 7.67057H7.84107Z"
            fill="white" />
        <path
            d="M9.97276 2.83383C9.97394 3.22127 9.82212 3.59342 9.5505 3.86888C9.27888 4.14434 8.90957 4.30069 8.52333 4.30375C8.33066 4.3041 8.13982 4.2663 7.96174 4.19251C7.78367 4.11873 7.62186 4.01041 7.4856 3.87377C7.34934 3.73712 7.24131 3.57485 7.1677 3.39624C7.09409 3.21763 7.05635 3.02621 7.05664 2.83294C7.05699 2.64094 7.09507 2.4509 7.16871 2.27368C7.24234 2.09646 7.35008 1.93554 7.48577 1.80013C7.62146 1.66472 7.78244 1.55748 7.95948 1.48453C8.13653 1.41158 8.32618 1.37437 8.51758 1.37501C8.7087 1.37466 8.89801 1.41214 9.07466 1.48532C9.25131 1.5585 9.41183 1.66593 9.54701 1.80145C9.6822 1.93697 9.78939 2.09792 9.86245 2.27508C9.93551 2.45223 9.973 2.64211 9.97276 2.83383ZM9.43576 2.83738C9.43576 2.32091 9.01651 1.89325 8.51625 1.89592C8.01599 1.89858 7.60206 2.33157 7.60339 2.84537C7.60471 3.35918 8.02529 3.78772 8.52466 3.7855C9.02404 3.78328 9.43753 3.35518 9.43576 2.83738Z"
            fill="white" />
    </g>
    <defs>
        <clipPath id="clip0_1659_548">
            <rect width="17" height="17" fill="white" />
        </clipPath>
    </defs>
</svg>
    