<svg width="57" height="86" viewBox="0 0 57 86" fill="none" xmlns="http://www.w3.org/2000/svg">
    <g clip-path="url(#clip0_1157_4815)">
        <path d="M11.8105 49.3588V85.9999L29.7222 67.9528V47.3887L11.8105 49.3588Z"
            fill="url(#paint0_linear_1157_4815)" />
        <path d="M47.6353 49.3588V85.9999L29.7236 67.9528V47.3887L47.6353 49.3588Z"
            fill="url(#paint1_linear_1157_4815)" />
        <path
            d="M28.5009 57.4256C44.2399 57.4256 56.9989 44.5711 56.9989 28.7143C56.9989 12.8574 44.2399 0.00292969 28.5009 0.00292969C12.7619 0.00292969 0.00292969 12.8574 0.00292969 28.7143C0.00292969 44.5711 12.7619 57.4256 28.5009 57.4256Z"
            fill="url(#paint2_linear_1157_4815)" />
        <path
            d="M28.4967 56.4124C43.6774 56.4124 55.9837 44.0139 55.9837 28.7196C55.9837 13.4253 43.6774 1.02686 28.4967 1.02686C13.3161 1.02686 1.00977 13.4253 1.00977 28.7196C1.00977 44.0139 13.3161 56.4124 28.4967 56.4124Z"
            fill="url(#paint3_linear_1157_4815)" />
        <path
            d="M28.5003 52.5036C41.5412 52.5036 52.1129 41.8527 52.1129 28.7142C52.1129 15.5757 41.5412 4.9248 28.5003 4.9248C15.4594 4.9248 4.8877 15.5757 4.8877 28.7142C4.8877 41.8527 15.4594 52.5036 28.5003 52.5036Z"
            fill="url(#paint4_linear_1157_4815)" />
        <g opacity="0.5">
            <path
                d="M28.2261 50.5332C40.0364 50.5332 49.6105 40.8874 49.6105 28.9888C49.6105 17.0901 40.0364 7.44434 28.2261 7.44434C16.4159 7.44434 6.8418 17.0901 6.8418 28.9888C6.8418 40.8874 16.4159 50.5332 28.2261 50.5332Z"
                fill="#B2A528" />
        </g>
        <path
            d="M34.1957 21.6375L46.3929 23.5324L37.4812 32.1335L39.4624 44.4055L28.5898 38.5252L17.6167 44.2155L19.8083 31.979L11.0459 23.2248L23.2729 21.5431L28.83 10.4414L34.1957 21.6375Z"
            fill="url(#paint5_linear_1157_4815)" />
        <path
            d="M34.147 21.6963L46.2423 23.5749L37.4052 32.1049L39.3702 44.2744L28.5872 38.4432L17.705 44.0857L19.879 31.9518L11.1885 23.27L23.315 21.602L28.8246 10.5933L34.147 21.6963Z"
            fill="url(#paint6_linear_1157_4815)" />
        <path
            d="M34.0969 21.7551L46.0918 23.6173L37.328 32.0762L39.2767 44.1431L28.5845 38.3612L17.7933 43.9572L19.9483 31.9244L11.3311 23.3151L23.3558 21.6608L28.8207 10.7437L34.0969 21.7551Z"
            fill="url(#paint7_linear_1157_4815)" />
        <path
            d="M34.0487 21.8126L45.9418 23.6597L37.2527 32.0476L39.1837 44.0133L28.5825 38.2793L17.8836 43.8274L20.0195 31.8972L11.4756 23.3603L23.3986 21.721L28.8159 10.8955L34.0487 21.8126Z"
            fill="url(#paint8_linear_1157_4815)" />
        <path
            d="M33.9989 21.871L45.7903 23.7017L37.1744 32.0184L39.0906 43.8817L28.5775 38.1969L17.9709 43.6985L20.0892 31.8694L11.6172 23.4051L23.4384 21.7794L28.811 11.0469L33.9989 21.871Z"
            fill="url(#paint9_linear_1157_4815)" />
        <path
            d="M33.9494 21.9299L45.6404 23.7456L37.0991 31.9885L38.9976 43.7519L28.5755 38.1149L18.0598 43.5701L20.1591 31.8422L11.7617 23.4503L23.4812 21.8383L28.8062 11.1987L33.9494 21.9299Z"
            fill="url(#paint10_linear_1157_4815)" />
        <path
            d="M33.9007 21.9888L45.4898 23.7881L37.0219 31.9599L38.9054 43.6208L28.5729 38.033L18.1481 43.4403L20.2298 31.8149L11.9043 23.4955L23.522 21.8986L28.8022 11.3506L33.9007 21.9888Z"
            fill="url(#paint11_linear_1157_4815)" />
        <path
            d="M33.8505 22.0462L45.3393 23.8304L36.946 31.9311L38.8119 43.4895L28.5703 37.9509L18.2364 43.3118L20.3004 31.7876L12.0469 23.5406L23.5628 21.9574L28.7969 11.501L33.8505 22.0462Z"
            fill="url(#paint12_linear_1157_4815)" />
        <path
            d="M33.8014 22.1051L45.1884 23.8729L36.8683 31.9025L38.718 43.3597L28.5673 37.8704L18.3243 43.182L20.3693 31.759L12.1904 23.5858L23.6045 22.0163L28.7925 11.6528L33.8014 22.1051Z"
            fill="url(#paint13_linear_1157_4815)" />
        <path
            d="M33.7526 22.164L45.0365 23.9168L36.7924 31.8739L38.6258 43.2286L28.5646 37.7884L18.4126 43.0536L20.44 31.7317L12.333 23.6324L23.6467 22.0765L28.7872 11.8047L33.7526 22.164Z"
            fill="url(#paint14_linear_1157_4815)" />
        <path
            d="M33.7025 22.221L44.8859 23.9588L36.7151 31.8448L38.5322 43.0983L28.562 37.706L18.5009 42.9233L20.5107 31.704L12.4756 23.6771L23.6875 22.1349L28.7832 11.9561L33.7025 22.221Z"
            fill="url(#paint15_linear_1157_4815)" />
        <path
            d="M33.6534 22.2798L44.735 24.0011L36.6389 31.8161L38.4383 42.967L28.559 37.624L18.5901 42.7948L20.5809 31.6766L12.6191 23.7222L23.7279 22.1937L28.7775 12.1064L33.6534 22.2798Z"
            fill="url(#paint16_linear_1157_4815)" />
        <path
            d="M33.6046 22.3387L44.5844 24.0436L36.5616 31.7875L38.3461 42.8359L28.5564 37.542L18.6784 42.665L20.6502 31.6494L12.7617 23.7674L23.7701 22.2526L28.7735 12.2583L33.6046 22.3387Z"
            fill="url(#paint17_linear_1157_4815)" />
        <path
            d="M33.5545 22.3976L44.4339 24.0861L36.4857 31.7589L38.2526 42.7061L28.5538 37.4601L18.7667 42.5365L20.7209 31.6221L12.9043 23.8127L23.8122 22.3128L28.7682 12.4102L33.5545 22.3976Z"
            fill="url(#paint18_linear_1157_4815)" />
    </g>
    <defs>
        <linearGradient id="paint0_linear_1157_4815" x1="30.8363" y1="48.5111" x2="2.50861"
            y2="76.6284" gradientUnits="userSpaceOnUse">
            <stop stop-color="#24388D" />
            <stop offset="1" stop-color="#3DC0F0" />
        </linearGradient>
        <linearGradient id="paint1_linear_1157_4815" x1="31.5977" y1="46.299" x2="52.9066"
            y2="82.9337" gradientUnits="userSpaceOnUse">
            <stop stop-color="#24388D" />
            <stop offset="1" stop-color="#3DC0F0" />
        </linearGradient>
        <linearGradient id="paint2_linear_1157_4815" x1="30.2265" y1="0.0503309" x2="26.7047"
            y2="57.366" gradientUnits="userSpaceOnUse">
            <stop stop-color="#D0C304" />
            <stop offset="0.15" stop-color="#C9BD05" />
            <stop offset="0.36" stop-color="#B7AC06" />
            <stop offset="0.61" stop-color="#999009" />
            <stop offset="0.88" stop-color="#706A0C" />
            <stop offset="1" stop-color="#5C580E" />
        </linearGradient>
        <linearGradient id="paint3_linear_1157_4815" x1="31.9457" y1="1.23926" x2="24.9148"
            y2="56.1728" gradientUnits="userSpaceOnUse">
            <stop stop-color="#D4C700" />
            <stop offset="0.26" stop-color="#D1C401" />
            <stop offset="0.47" stop-color="#C6BA05" />
            <stop offset="0.67" stop-color="#B5AA0C" />
            <stop offset="0.85" stop-color="#9D9316" />
            <stop offset="1" stop-color="#847C20" />
        </linearGradient>
        <linearGradient id="paint4_linear_1157_4815" x1="16.6913" y1="49.3194" x2="40.5732"
            y2="8.26193" gradientUnits="userSpaceOnUse">
            <stop stop-color="#FFF487" />
            <stop offset="0.56" stop-color="#C5BA46" />
            <stop offset="1" stop-color="#9B9018" />
        </linearGradient>
        <linearGradient id="paint5_linear_1157_4815" x1="40.9267" y1="18.0253" x2="16.0907"
            y2="42.6767" gradientUnits="userSpaceOnUse">
            <stop stop-color="#D0C304" />
            <stop offset="0.15" stop-color="#C9BD05" />
            <stop offset="0.36" stop-color="#B7AC06" />
            <stop offset="0.61" stop-color="#999009" />
            <stop offset="0.88" stop-color="#706A0C" />
            <stop offset="1" stop-color="#5C580E" />
        </linearGradient>
        <linearGradient id="paint6_linear_1157_4815" x1="38.1665" y1="17.1996" x2="17.2361"
            y2="43.7154" gradientUnits="userSpaceOnUse">
            <stop stop-color="#D0C304" />
            <stop offset="0.15" stop-color="#C9BD05" />
            <stop offset="0.36" stop-color="#B7AC06" />
            <stop offset="0.61" stop-color="#999009" />
            <stop offset="0.88" stop-color="#706A0C" />
            <stop offset="1" stop-color="#5C580E" />
        </linearGradient>
        <linearGradient id="paint7_linear_1157_4815" x1="36.3455" y1="15.3279" x2="18.6079"
            y2="44.4525" gradientUnits="userSpaceOnUse">
            <stop stop-color="#D0C304" />
            <stop offset="0.15" stop-color="#C9BD05" />
            <stop offset="0.36" stop-color="#B7AC06" />
            <stop offset="0.61" stop-color="#999009" />
            <stop offset="0.88" stop-color="#706A0C" />
            <stop offset="1" stop-color="#5C580E" />
        </linearGradient>
        <linearGradient id="paint8_linear_1157_4815" x1="34.3839" y1="13.4194" x2="20.1331"
            y2="44.8484" gradientUnits="userSpaceOnUse">
            <stop stop-color="#D0C304" />
            <stop offset="0.15" stop-color="#C9BD05" />
            <stop offset="0.36" stop-color="#B7AC06" />
            <stop offset="0.61" stop-color="#999009" />
            <stop offset="0.88" stop-color="#706A0C" />
            <stop offset="1" stop-color="#5C580E" />
        </linearGradient>
        <linearGradient id="paint9_linear_1157_4815" x1="32.2389" y1="12.1229" x2="21.9355"
            y2="44.9427" gradientUnits="userSpaceOnUse">
            <stop stop-color="#D0C304" />
            <stop offset="0.15" stop-color="#C9BD05" />
            <stop offset="0.36" stop-color="#B7AC06" />
            <stop offset="0.61" stop-color="#999009" />
            <stop offset="0.88" stop-color="#706A0C" />
            <stop offset="1" stop-color="#5C580E" />
        </linearGradient>
        <linearGradient id="paint10_linear_1157_4815" x1="30.8866" y1="11.5829" x2="24.7517"
            y2="44.8048" gradientUnits="userSpaceOnUse">
            <stop stop-color="#D0C304" />
            <stop offset="0.15" stop-color="#C9BD05" />
            <stop offset="0.36" stop-color="#B7AC06" />
            <stop offset="0.61" stop-color="#999009" />
            <stop offset="0.88" stop-color="#706A0C" />
            <stop offset="1" stop-color="#5C580E" />
        </linearGradient>
        <linearGradient id="paint11_linear_1157_4815" x1="29.4319" y1="11.3889" x2="27.4444"
            y2="44.0073" gradientUnits="userSpaceOnUse">
            <stop stop-color="#D0C304" />
            <stop offset="0.15" stop-color="#C9BD05" />
            <stop offset="0.36" stop-color="#B7AC06" />
            <stop offset="0.61" stop-color="#999009" />
            <stop offset="0.88" stop-color="#706A0C" />
            <stop offset="1" stop-color="#5C580E" />
        </linearGradient>
        <linearGradient id="paint12_linear_1157_4815" x1="27.965" y1="11.5516" x2="29.9443"
            y2="44.0305" gradientUnits="userSpaceOnUse">
            <stop stop-color="#D0C304" />
            <stop offset="0.15" stop-color="#C9BD05" />
            <stop offset="0.36" stop-color="#B7AC06" />
            <stop offset="0.61" stop-color="#999009" />
            <stop offset="0.88" stop-color="#706A0C" />
            <stop offset="1" stop-color="#5C580E" />
        </linearGradient>
        <linearGradient id="paint13_linear_1157_4815" x1="26.567" y1="12.0644" x2="32.5545"
            y2="44.4978" gradientUnits="userSpaceOnUse">
            <stop stop-color="#D0C304" />
            <stop offset="0.15" stop-color="#C9BD05" />
            <stop offset="0.36" stop-color="#B7AC06" />
            <stop offset="0.61" stop-color="#999009" />
            <stop offset="0.88" stop-color="#706A0C" />
            <stop offset="1" stop-color="#5C580E" />
        </linearGradient>
        <linearGradient id="paint14_linear_1157_4815" x1="25.3199" y1="12.893" x2="35.1831"
            y2="44.3092" gradientUnits="userSpaceOnUse">
            <stop stop-color="#D0C304" />
            <stop offset="0.15" stop-color="#C9BD05" />
            <stop offset="0.36" stop-color="#B7AC06" />
            <stop offset="0.61" stop-color="#999009" />
            <stop offset="0.88" stop-color="#706A0C" />
            <stop offset="1" stop-color="#5C580E" />
        </linearGradient>
        <linearGradient id="paint15_linear_1157_4815" x1="23.222" y1="14.4772" x2="36.5976"
            y2="43.9752" gradientUnits="userSpaceOnUse">
            <stop stop-color="#D0C304" />
            <stop offset="0.15" stop-color="#C9BD05" />
            <stop offset="0.36" stop-color="#B7AC06" />
            <stop offset="0.61" stop-color="#999009" />
            <stop offset="0.88" stop-color="#706A0C" />
            <stop offset="1" stop-color="#5C580E" />
        </linearGradient>
        <linearGradient id="paint16_linear_1157_4815" x1="21.5349" y1="16.5184" x2="37.8581"
            y2="43.32" gradientUnits="userSpaceOnUse">
            <stop stop-color="#D0C304" />
            <stop offset="0.15" stop-color="#C9BD05" />
            <stop offset="0.36" stop-color="#B7AC06" />
            <stop offset="0.61" stop-color="#999009" />
            <stop offset="0.88" stop-color="#706A0C" />
            <stop offset="1" stop-color="#5C580E" />
        </linearGradient>
        <linearGradient id="paint17_linear_1157_4815" x1="19.8346" y1="18.1838" x2="38.9298"
            y2="42.3763" gradientUnits="userSpaceOnUse">
            <stop stop-color="#D0C304" />
            <stop offset="0.15" stop-color="#C9BD05" />
            <stop offset="0.36" stop-color="#B7AC06" />
            <stop offset="0.61" stop-color="#999009" />
            <stop offset="0.88" stop-color="#706A0C" />
            <stop offset="1" stop-color="#5C580E" />
        </linearGradient>
        <linearGradient id="paint18_linear_1157_4815" x1="17.5386" y1="19.1436" x2="39.7537"
            y2="41.1937" gradientUnits="userSpaceOnUse">
            <stop stop-color="#D0C304" />
            <stop offset="0.15" stop-color="#C9BD05" />
            <stop offset="0.36" stop-color="#B7AC06" />
            <stop offset="0.61" stop-color="#999009" />
            <stop offset="0.88" stop-color="#706A0C" />
            <stop offset="1" stop-color="#5C580E" />
        </linearGradient>
        <clipPath id="clip0_1157_4815">
            <rect width="57" height="86" fill="white" />
        </clipPath>
    </defs>
</svg>
    