<svg width="791" height="1086" viewBox="0 0 791 1086" fill="none" xmlns="http://www.w3.org/2000/svg">
    <g filter="url(#filter0_d_681_77)">
        <path
            d="M611.521 3C603.084 26.8672 594.684 48.8096 587.402 71.137C561.472 150.996 542.497 232.645 525.872 314.871C525.197 318.22 527.182 322.936 529.397 325.938C592.297 411.473 650.293 500.502 703.105 592.597C759.28 690.587 809.464 791.406 846.047 898.636C864.098 951.451 877.853 1005.35 884.576 1060.87C885.004 1064.6 885.056 1068.36 884.73 1072.1C822.622 819.489 705.917 599.025 508.129 426.065L504.989 427.047C502.639 440.809 500.943 454.744 497.745 468.314C494.181 483.539 496.917 497.186 503.891 510.813C514.255 531.042 523.521 551.83 533.924 572.04C536.402 576.316 540.22 579.658 544.789 581.548C595.224 601.97 642.287 627.743 680.084 667.643C692.432 680.713 702.912 695.553 713.103 710.701C669.681 665.815 619.42 632.67 558.66 615.617C588.501 671.017 622.43 724.121 660.164 774.488C698.038 824.974 737.492 874.268 775.347 922.907C726.338 878.06 681.105 827.323 634.812 773.66C625.026 816.525 615.702 857.368 607.129 894.921C607.129 878.002 606.204 857.715 607.341 837.543C608.863 810.365 612.08 783.303 614.218 756.164C614.51 752.462 613.569 748.767 611.541 745.655C583.286 707.878 554.91 670.236 526.411 632.728C525.343 631.75 524.182 630.88 522.943 630.13C519.996 641.197 516.605 651.456 514.602 661.965C510.479 683.658 506.742 705.427 503.698 727.273C503.127 732.906 504.225 738.582 506.858 743.595C524.581 777.336 542.863 810.808 560.971 844.338C562.645 846.747 563.39 849.68 563.071 852.595L500.365 756.799C494.586 814.542 494.316 870.361 494.586 926.044C494.586 869.437 494.759 812.81 494.355 756.202C494.031 749.341 492.245 742.628 489.115 736.512C483.596 725.528 477.246 714.982 470.12 704.965C459.216 806.824 455.652 908.875 454.42 1011.22C451.145 981.555 447.272 951.932 444.787 922.214C440.645 873.383 436.484 824.513 433.98 775.566C431.726 731.411 431.398 687.026 430.898 642.891C430.769 632.048 428.263 621.365 423.558 611.594C407.703 577.352 392.503 542.783 376.726 507.656C374.433 511.814 371.89 516.337 369.444 520.88C368.384 522.804 367.691 525.056 366.458 526.923C348.253 554.294 345.267 584.936 344.882 616.868C344.483 689.642 350.42 762.313 362.624 834.059C362.962 835.981 362.87 837.952 362.355 839.834C340.547 772.101 329.374 702.116 319.144 628.956C316.274 634.576 314.598 637.463 313.365 640.504C301.806 667.605 290.248 694.667 279.151 721.961C277.24 726.951 276.727 732.368 277.668 737.628C292.983 819.104 302.519 901.061 299.36 984.134C299.051 992.276 297.722 1000.36 297.144 1005.85C295.218 928.008 279.382 849.708 261.852 771.677L258.307 770.985L185.43 980.458C213.228 837.89 248.135 700.114 294.678 564.995C226.116 623.277 168.612 690.914 119.738 766.096C71.1038 841.034 32.8684 922.216 6.07715 1007.42C14.1895 962.702 26.8676 918.929 43.9126 876.789C90.2052 760.302 156.764 656.942 246.614 569.172C266.764 549.482 289.169 532.12 310.302 513.354C314.131 510.07 317.251 506.043 319.472 501.516C343.874 448.624 368.07 395.647 392.06 342.588C392.812 340.932 393.351 339.181 395.046 334.658C303.656 385.741 221.878 444.1 159.365 526.269L157.438 524.941C168.284 508.657 178.282 491.738 190.188 476.225C230.219 423.89 280.731 382.912 334.96 346.341C359.407 329.865 385.048 315.295 409.976 299.434C415.28 296.036 419.862 291.628 423.462 286.461C436.658 267.214 449.989 247.831 461.644 227.583C466.864 218.498 468.714 207.315 471.276 196.902C476.208 177.365 480.427 157.656 485.32 138.1C486.246 133.758 488.231 129.711 491.099 126.32C528.78 86.9009 566.622 47.6355 604.625 8.52411C606.262 6.8688 608.381 5.52145 611.521 3ZM441.031 390.515C439.921 391.518 438.926 392.642 438.064 393.864C422.652 421.581 407.106 449.22 392.099 477.149C390.615 480.856 390.615 484.99 392.099 488.697C402.733 515.124 413.829 541.378 424.849 567.613C426.004 570.365 427.642 572.925 429.742 576.871C433.614 513.719 437.313 452.242 441.031 390.515ZM493.392 716.86L495.761 716.417C496.085 714.963 496.323 713.491 496.474 712.01C498.4 678.499 499.267 644.893 502.446 611.517C504.16 593.597 493.006 583.127 484.973 567.671C484.084 570.276 483.344 572.93 482.758 575.62C480.118 597.524 477.325 619.389 475.052 641.332C473.915 652.399 470.987 664.429 473.838 674.534C478.019 689.297 486.649 702.809 493.392 716.86Z"
            fill="white" />
    </g>
    <defs>
        <filter id="filter0_d_681_77" x="0.0771484" y="0" width="894.864" height="1085.1"
            filterUnits="userSpaceOnUse" color-interpolation-filters="sRGB">
            <feFlood flood-opacity="0" result="BackgroundImageFix" />
            <feColorMatrix in="SourceAlpha" type="matrix"
                values="0 0 0 0 0 0 0 0 0 0 0 0 0 0 0 0 0 0 127 0" result="hardAlpha" />
            <feOffset dx="2" dy="5" />
            <feGaussianBlur stdDeviation="4" />
            <feComposite in2="hardAlpha" operator="out" />
            <feColorMatrix type="matrix" values="0 0 0 0 0 0 0 0 0 0 0 0 0 0 0 0 0 0 0.25 0" />
            <feBlend mode="normal" in2="BackgroundImageFix" result="effect1_dropShadow_681_77" />
            <feBlend mode="normal" in="SourceGraphic" in2="effect1_dropShadow_681_77" result="shape" />
        </filter>
    </defs>
</svg>
    