<svg width="200" height="129" viewBox="0 0 200 129" fill="none" xmlns="http://www.w3.org/2000/svg">
    <g clip-path="url(#clip0_912_4683)">
    <path d="M10.2386 83.6081C9.20421 83.3956 8.20998 83.02 7.29297 82.4951L8.94255 78.8389C9.7116 79.267 10.5301 79.599 11.3797 79.8275C12.221 80.068 13.0908 80.1935 13.9656 80.2006C14.4825 80.2305 15.0004 80.1608 15.4912 79.9954C15.6265 79.959 15.7455 79.8777 15.8288 79.7647C15.9121 79.6518 15.9549 79.514 15.9501 79.3736C15.9501 79.0627 15.7454 78.8264 15.3299 78.671C14.6893 78.4485 14.0319 78.2781 13.3641 78.1611C12.3685 77.9665 11.3865 77.7068 10.4246 77.3839C9.64168 77.1082 8.94021 76.6399 8.38441 76.0221C7.77332 75.3137 7.45991 74.3955 7.51004 73.4602C7.50273 72.5463 7.78501 71.6536 8.31621 70.9108C8.9275 70.0877 9.76309 69.4593 10.7223 69.1014C11.9618 68.6323 13.2801 68.4086 14.6044 68.4423C15.6467 68.4408 16.6862 68.5512 17.7051 68.7718C18.6359 68.9647 19.534 69.2915 20.3716 69.7418L18.8275 73.3794C17.5176 72.6874 16.0659 72.3086 14.5858 72.2726C13.2649 72.2726 12.6013 72.5835 12.6013 73.2053C12.6013 73.5037 12.7998 73.7276 13.2215 73.8769C13.8533 74.0855 14.5001 74.2455 15.1563 74.3556C16.1533 74.5247 17.136 74.77 18.0958 75.0894C18.8874 75.363 19.6005 75.8262 20.1732 76.4387C20.7869 77.1409 21.1029 78.0557 21.0538 78.9881C21.0628 79.9004 20.7803 80.7916 20.2476 81.5313C19.6351 82.3492 18.8025 82.9748 17.8477 83.3345C16.6085 83.8134 15.287 84.0416 13.9594 84.006C12.708 84.0182 11.4593 83.8847 10.2386 83.6081Z" fill="white"/>
    <path d="M26.9757 82.1782C25.6652 80.9346 25.012 79.2039 25.0161 76.9861V68.7969H30.1508V76.8306C30.0878 77.6715 30.306 78.5095 30.771 79.2121C30.9816 79.4628 31.2477 79.6608 31.5481 79.7904C31.8484 79.9199 32.1748 79.9774 32.5012 79.9583C32.8277 79.9789 33.1546 79.9221 33.4551 79.7924C33.7557 79.6628 34.0216 79.464 34.2313 79.2121C34.6968 78.5097 34.915 77.6716 34.8515 76.8306V68.7969H39.8932V76.9799C39.8932 79.2059 39.2421 80.9366 37.9398 82.1719C36.6313 83.4156 34.8391 84.0374 32.4763 84.0374C30.1136 84.0374 28.278 83.4093 26.9757 82.1782Z" fill="white"/>
    <path d="M46.8016 83.608C45.7672 83.3955 44.773 83.0198 43.856 82.495L45.5055 78.8387C46.2745 79.2669 47.093 79.5989 47.9426 79.8274C48.7839 80.0679 49.6538 80.1934 50.5286 80.2005C51.0377 80.2252 51.5468 80.1535 52.0293 79.9891C52.1646 79.9526 52.2836 79.8713 52.367 79.7584C52.4503 79.6455 52.493 79.5076 52.4882 79.3673C52.4882 79.0564 52.2836 78.8201 51.8681 78.6646C51.2275 78.4422 50.5701 78.2717 49.9023 78.1548C48.9066 77.9601 47.9247 77.7005 46.9628 77.3775C46.1799 77.1018 45.4784 76.6336 44.9226 76.0157C44.3115 75.3074 43.9981 74.3891 44.0482 73.4539C44.0409 72.5399 44.3232 71.6472 44.8544 70.9045C45.4657 70.0814 46.3013 69.453 47.2605 69.095C48.4999 68.626 49.8182 68.4022 51.1426 68.4359C52.1849 68.4345 53.2244 68.5449 54.2432 68.7654C55.174 68.9584 56.0721 69.2851 56.9098 69.7355L55.3657 73.373C54.0558 72.6811 52.604 72.3022 51.1239 72.2662C49.803 72.2662 49.1395 72.5771 49.1395 73.1989C49.1395 73.4974 49.338 73.7213 49.7597 73.8705C50.3915 74.0792 51.0383 74.2393 51.6945 74.3493C52.6915 74.5184 53.6742 74.7637 54.6339 75.083C55.4256 75.3566 56.1386 75.8198 56.7114 76.4324C57.3251 77.1346 57.641 78.0493 57.5919 78.9817C57.601 79.894 57.3185 80.7853 56.7858 81.5249C56.1733 82.3428 55.3407 82.9684 54.3859 83.3282C53.1466 83.807 51.8252 84.0353 50.4976 83.9997C49.2547 84.012 48.0145 83.8806 46.8016 83.608Z" fill="white"/>
    <path d="M64.7981 72.6956H60.3394V68.7969H74.3916V72.6894H69.9328V83.6767H64.7981V72.6956Z" fill="white"/>
    <path d="M90.9861 79.9023V83.6829H78.3291V68.7969H90.7318V72.5837H83.377V74.3247H89.814V77.9374H83.377V79.8961L90.9861 79.9023Z" fill="white"/>
    <path d="M110.582 68.7969V83.6767H106.366L100.58 76.9177V83.6767H95.5752V68.7969H99.7797L105.566 75.5559V68.7969H110.582Z" fill="white"/>
    <path d="M119.004 72.6956H114.545V68.7969H128.598V72.6894H124.139V83.6767H119.004V72.6956Z" fill="white"/>
    <path d="M142.123 81.09H136.368L135.345 83.6829H130.123L136.752 68.7969H141.8L148.454 83.6767H143.146L142.123 81.09ZM140.709 77.5022L139.233 73.7713L137.751 77.5022H140.709Z" fill="white"/>
    <path d="M166.134 77.328C166.632 77.9705 166.893 78.7658 166.872 79.579C166.891 80.1861 166.748 80.7872 166.458 81.3205C166.168 81.8538 165.742 82.3001 165.223 82.6134C164.119 83.3264 162.523 83.6829 160.435 83.6829H151.871V68.7969H160.007C162.033 68.7969 163.567 69.1513 164.609 69.8601C165.089 70.157 165.484 70.5737 165.756 71.0696C166.028 71.5655 166.167 72.1236 166.159 72.6894C166.168 73.3503 165.983 73.9992 165.626 74.5548C165.232 75.1365 164.688 75.5989 164.051 75.8917C164.866 76.1648 165.588 76.6625 166.134 77.328ZM156.913 72.3101V74.5237H159.313C160.429 74.5237 160.987 74.1507 160.987 73.4169C160.987 72.6832 160.429 72.3101 159.313 72.3101H156.913ZM161.694 79.007C161.694 78.2297 161.13 77.838 160.001 77.838H156.9V80.176H160.001C161.173 80.176 161.719 79.7904 161.719 79.007H161.694Z" fill="white"/>
    <path d="M171.312 68.7969H176.447V79.7904H183.318V83.6767H171.312V68.7969Z" fill="white"/>
    <path d="M200 79.9023V83.6829H187.343V68.7969H199.746V72.5837H192.391V74.3247H198.828V77.9374H192.391V79.8961L200 79.9023Z" fill="white"/>
    <path d="M21.432 64.5063L18.1577 59.8863H14.5485V64.5063H10.623V47.9228H17.9655C19.3067 47.89 20.6398 48.1399 21.8785 48.6565C22.9155 49.0873 23.8053 49.811 24.4397 50.7395C25.0505 51.6932 25.3616 52.8088 25.3327 53.9418C25.3643 55.0711 25.0482 56.1828 24.4273 57.1255C23.784 58.0458 22.8877 58.7588 21.8475 59.1775L25.649 64.5063H21.432ZM20.4398 51.7966C19.6537 51.2477 18.7041 50.9844 17.7484 51.0504H14.5485V56.827H17.7484C18.7062 56.8956 19.6579 56.6273 20.4398 56.0684C20.7468 55.8096 20.9895 55.4827 21.1488 55.1136C21.3081 54.7446 21.3796 54.3434 21.3576 53.9418C21.3825 53.5372 21.3125 53.1323 21.1531 52.7598C20.9937 52.3872 20.7494 52.0574 20.4398 51.7966Z" fill="#80ED00"/>
    <path d="M43.8561 60.2905V64.5064H29.748V47.9229H43.5399V52.1386H35.3665V54.0787H42.5415V58.108H35.3665V60.2905H43.8561Z" fill="#80ED00"/>
    <path d="M65.8834 47.9229L58.7084 64.5064H53.09L45.915 47.9229H52.0668L56.1163 57.6106L60.265 47.9229H65.8834Z" fill="#80ED00"/>
    <path d="M72.1155 63.7727C70.7122 63.0725 69.5295 61.9964 68.6986 60.6636C67.8668 59.3232 67.4363 57.7714 67.4583 56.1928C67.4372 54.6163 67.8676 53.0668 68.6986 51.7283C69.5277 50.394 70.7109 49.3175 72.1155 48.6192C73.6431 47.8612 75.329 47.4795 77.0332 47.5062C78.7394 47.4795 80.4274 47.8611 81.9571 48.6192C83.3607 49.3191 84.5434 50.3953 85.3741 51.7283C86.2053 53.0667 86.6358 54.6162 86.6143 56.1928C86.6366 57.7714 86.2061 59.3233 85.3741 60.6636C84.5417 61.9952 83.3594 63.0709 81.9571 63.7727C80.4274 64.5308 78.7394 64.9123 77.0332 64.8857C75.329 64.9123 73.6431 64.5308 72.1155 63.7727ZM78.937 59.849C79.518 59.5044 79.9924 59.0051 80.3075 58.4065C80.6596 57.7298 80.8346 56.9745 80.816 56.2115C80.8346 55.4504 80.6596 54.6972 80.3075 54.0227C79.9905 53.4239 79.5167 52.923 78.937 52.5739C78.3518 52.2333 77.685 52.0591 77.0084 52.0702C76.3339 52.0603 75.6694 52.2344 75.086 52.5739C74.5063 52.923 74.0325 53.4239 73.7155 54.0227C73.3634 54.6972 73.1884 55.4504 73.207 56.2115C73.1884 56.9745 73.3634 57.7298 73.7155 58.4065C74.0306 59.0051 74.505 59.5044 75.086 59.849C75.6681 60.1925 76.3331 60.3689 77.0084 60.359C77.694 60.3727 78.37 60.1962 78.9618 59.849H78.937Z" fill="#80ED00"/>
    <path d="M90.6328 47.9229H96.3504V60.1724H104.015V64.5251H90.6328V47.9229Z" fill="#80ED00"/>
    <path d="M109.442 62.8213C107.991 61.445 107.263 59.5195 107.259 57.0447V47.9229H112.983V56.8768C112.906 57.8109 113.14 58.7442 113.646 59.5319C113.881 59.8113 114.178 60.0315 114.513 60.1751C114.847 60.3188 115.211 60.3818 115.575 60.359C115.938 60.3813 116.302 60.318 116.637 60.1745C116.972 60.0309 117.268 59.8109 117.503 59.5319C118.01 58.7442 118.243 57.8109 118.167 56.8768V47.9229H123.792V57.0447C123.792 59.5319 123.064 61.4575 121.609 62.8213C120.153 64.1851 118.126 64.8732 115.525 64.8857C112.929 64.8857 110.901 64.1976 109.442 62.8213Z" fill="#80ED00"/>
    <path d="M132.275 63.7849C130.879 63.0884 129.707 62.0106 128.895 60.6758C128.063 59.3286 127.633 57.7709 127.655 56.1864C127.634 54.602 128.064 53.0445 128.895 51.697C129.709 50.3632 130.88 49.2858 132.275 48.5879C133.781 47.8386 135.444 47.4613 137.125 47.4873C138.638 47.4583 140.14 47.7485 141.534 48.3392C142.793 48.8842 143.893 49.7399 144.734 50.8264L141.124 53.979C140.697 53.3879 140.139 52.9047 139.493 52.5679C138.847 52.2311 138.132 52.0501 137.404 52.039C136.871 52.0149 136.34 52.1026 135.843 52.2964C135.347 52.4902 134.896 52.7858 134.52 53.1644C134.146 53.5683 133.857 54.0433 133.669 54.5613C133.482 55.0793 133.4 55.6298 133.429 56.1802C133.399 56.7315 133.48 57.2832 133.668 57.8024C133.855 58.3216 134.145 58.7976 134.52 59.2021C134.896 59.5807 135.347 59.8765 135.843 60.0703C136.34 60.2641 136.871 60.3517 137.404 60.3277C138.132 60.3166 138.847 60.1355 139.493 59.7987C140.139 59.4619 140.697 58.9788 141.124 58.3876L144.734 61.5339C143.893 62.6199 142.792 63.4754 141.534 64.0211C140.139 64.6088 138.637 64.8989 137.125 64.873C135.445 64.903 133.782 64.5299 132.275 63.7849Z" fill="#80ED00"/>
    <path d="M148.324 47.9229H154.042V64.5064H148.324V47.9229Z" fill="#80ED00"/>
    <path d="M162.718 63.7725C161.315 63.0707 160.133 61.995 159.301 60.6634C158.469 59.3231 158.038 57.7712 158.06 56.1926C158.039 54.616 158.469 53.0665 159.301 51.7281C160.131 50.3951 161.314 49.3189 162.718 48.619C164.247 47.8609 165.935 47.4793 167.642 47.506C169.346 47.4793 171.032 47.861 172.559 48.619C173.964 49.3173 175.147 50.3938 175.976 51.7281C176.807 53.0665 177.238 54.616 177.216 56.1926C177.239 57.7712 176.808 59.3231 175.976 60.6634C175.145 61.9962 173.963 63.0723 172.559 63.7725C171.032 64.5306 169.346 64.9121 167.642 64.8855C165.935 64.9121 164.247 64.5306 162.718 63.7725ZM169.539 59.8488C170.12 59.5042 170.595 59.0049 170.91 58.4063C171.262 57.7296 171.437 56.9743 171.418 56.2113C171.437 55.4502 171.262 54.697 170.91 54.0225C170.593 53.4237 170.119 52.9228 169.539 52.5737C168.956 52.2342 168.291 52.0601 167.617 52.07C166.94 52.0589 166.273 52.2331 165.688 52.5737C165.108 52.9228 164.635 53.4237 164.318 54.0225C163.965 54.697 163.79 55.4502 163.809 56.2113C163.791 56.9743 163.965 57.7296 164.318 58.4063C164.633 59.0049 165.107 59.5042 165.688 59.8488C166.273 60.1916 166.94 60.368 167.617 60.3588C168.3 60.3733 168.975 60.1967 169.564 59.8488H169.539ZM168.299 42.7803H173.508L168.739 46.5733H165.099L168.299 42.7803Z" fill="#80ED00"/>
    <path d="M197.96 47.9229V64.5064H193.259L186.81 56.9825V64.5188H181.229V47.9352H185.935L192.379 55.4654V47.9352L197.96 47.9229Z" fill="#80ED00"/>
    <path d="M28.7247 63.4803L26.2442 59.9174C26.6001 59.4774 26.9234 59.0119 27.2116 58.5245C28.006 57.2145 28.4125 55.7049 28.3836 54.1719C28.4155 52.4405 27.9529 50.736 27.0503 49.2596C26.1233 47.8955 24.8194 46.8323 23.2985 46.2004C21.6744 45.5325 19.9313 45.2044 18.1762 45.2365H0L8.52687 45.9454C8.1276 46.3587 7.90509 46.912 7.90673 47.4875V47.7859H2.20768L7.90673 48.5943V50.4597H5.20916L7.89435 51.125V64.7426C7.8984 65.0423 7.96128 65.3383 8.0794 65.6136C8.19753 65.8889 8.36859 66.1382 8.58281 66.3472C8.79703 66.5562 9.05023 66.7209 9.32793 66.8318C9.60562 66.9427 9.90236 66.9976 10.2012 66.9935H15.6833C16.1721 66.9971 16.6493 66.844 17.0453 66.5565C17.4413 66.2691 17.7354 65.8623 17.8847 65.3955L18.3064 66.0173C18.5208 66.3252 18.8068 66.5761 19.1396 66.7484C19.4724 66.9206 19.842 67.009 20.2164 67.006H26.8209C27.2359 67.01 27.6443 66.9011 28.0025 66.6909C28.3607 66.4807 28.6553 66.1769 28.8549 65.8121C29.055 65.4507 29.149 65.04 29.1259 64.6274C29.1029 64.2147 28.9637 63.817 28.7247 63.4803ZM28.179 65.4452C28.0463 65.6898 27.8499 65.8936 27.6107 66.0349C27.3715 66.1762 27.0985 66.2496 26.8209 66.2474H20.2164C19.9673 66.248 19.7217 66.1885 19.5004 66.0737C19.2791 65.959 19.0887 65.7924 18.9452 65.5882L17.2212 63.101V64.7488C17.2147 65.1523 17.0493 65.5369 16.7613 65.8188C16.4732 66.1006 16.0857 66.2569 15.6833 66.2536H10.2012C10.0017 66.2561 9.80366 66.2191 9.61839 66.1448C9.43311 66.0705 9.26427 65.9603 9.12145 65.8206C8.97864 65.6808 8.86467 65.5143 8.78606 65.3304C8.70746 65.1465 8.66574 64.9489 8.66332 64.7488V47.5061C8.66574 47.3061 8.70746 47.1085 8.78606 46.9246C8.86467 46.7407 8.97864 46.5741 9.12145 46.4344C9.26427 46.2946 9.43311 46.1845 9.61839 46.1102C9.80366 46.0359 10.0017 45.9989 10.2012 46.0013H18.1824C19.8316 45.9698 21.4696 46.2788 22.9946 46.9092C24.3806 47.48 25.5688 48.4465 26.4116 49.6887C27.2436 51.0405 27.6739 52.6022 27.6519 54.1906C27.677 55.5835 27.3071 56.9549 26.5852 58.1452C26.2737 58.6798 25.9124 59.1837 25.5062 59.65L25.3016 59.8676L28.117 63.9032C28.2678 64.1296 28.3534 64.3934 28.3643 64.6655C28.3753 64.9375 28.3111 65.2074 28.179 65.4452Z" fill="white"/>
    <path d="M175.331 113.374C134.111 136.188 74.8692 133.893 36.21 107.392C46.4732 113.169 57.7101 116.937 69.133 119.206C102.354 125.424 139.587 120.649 167.381 101.417L175.331 113.386V113.374Z" fill="#80ED00"/>
    <path d="M32.2349 15.6262C73.4553 -7.18787 132.66 -4.8934 171.356 21.608C161.087 15.8314 149.856 12.0633 138.427 9.79367C105.212 3.5756 67.9795 8.35106 40.1788 27.5773L32.2349 15.6138V15.6262Z" fill="#80ED00"/>
    <path d="M43.3476 32.7941C34.4548 34.4294 26.5605 38.2971 18.3003 42.6621C18.1645 42.729 18.0135 42.7589 17.8626 42.7488C17.7116 42.7387 17.566 42.689 17.4403 42.6045C17.3146 42.5201 17.2133 42.404 17.1465 42.2678C17.0798 42.1317 17.0499 41.9803 17.06 41.8289C18.4308 31.2503 21.609 20.9875 26.4551 11.491C26.5772 11.2533 26.7564 11.0499 26.9766 10.899C27.1967 10.7481 27.4509 10.6546 27.7161 10.6269C27.9813 10.5991 28.2492 10.638 28.4957 10.74C28.7421 10.842 28.9594 11.0039 29.1279 11.2112C34.1964 17.5909 39.265 23.9665 44.3336 30.338C44.4983 30.5493 44.6047 30.8003 44.6421 31.0659C44.6795 31.3315 44.6467 31.6022 44.5468 31.851C44.4469 32.0998 44.2835 32.3179 44.073 32.4835C43.8625 32.649 43.6124 32.7561 43.3476 32.7941Z" fill="#80ED00"/>
    <path d="M164.212 96.7781C173.111 95.1428 180.999 91.2751 189.265 86.9101C189.402 86.8353 189.557 86.7991 189.712 86.8054C189.868 86.8116 190.019 86.86 190.149 86.9455C190.28 87.031 190.385 87.1503 190.453 87.2908C190.521 87.4313 190.55 87.5876 190.537 87.7433C189.166 98.3226 185.985 108.586 181.135 118.081C181.014 118.319 180.835 118.522 180.616 118.673C180.396 118.824 180.142 118.918 179.878 118.946C179.613 118.974 179.345 118.935 179.099 118.833C178.853 118.73 178.636 118.568 178.469 118.361L163.257 99.2653C163.085 99.0562 162.971 98.8049 162.928 98.5372C162.884 98.2695 162.912 97.995 163.01 97.7419C163.107 97.4889 163.269 97.2662 163.481 97.0968C163.692 96.9275 163.944 96.8175 164.212 96.7781Z" fill="#80ED00"/>
    </g>
    <defs>
    <clipPath id="clip0_912_4683">
    <rect width="200" height="129" fill="white"/>
    </clipPath>
    </defs>
    </svg>
    