<svg width="46" height="45" viewBox="0 0 46 45" fill="none" xmlns="http://www.w3.org/2000/svg">
    <g opacity="0.5">
        <path
            d="M32.33 22.4198C32.33 23.7212 32.0737 25.0098 31.5756 26.2122C31.0776 27.4145 30.3477 28.507 29.4274 29.4272C28.5072 30.3474 27.4147 31.0774 26.2124 31.5754C25.0101 32.0734 23.7214 32.3298 22.42 32.3298C19.7908 32.3298 17.2691 31.286 15.409 29.4278C13.549 27.5696 12.5027 25.049 12.5 22.4198C12.5027 19.7906 13.549 17.2699 15.409 15.4117C17.2691 13.5535 19.7908 12.5098 22.42 12.5098C23.7214 12.5098 25.0101 12.7661 26.2124 13.2641C27.4147 13.7621 28.5072 14.4921 29.4274 15.4123C30.3477 16.3326 31.0776 17.425 31.5756 18.6274C32.0737 19.8297 32.33 21.1184 32.33 22.4198Z"
            fill="#FCFCFC" />
        <path
            d="M19.9404 22.4197C19.9404 22.0945 20.0046 21.7725 20.1294 21.4722C20.2541 21.1718 20.437 20.8991 20.6674 20.6696C20.8978 20.4401 21.1713 20.2584 21.4721 20.1349C21.773 20.0113 22.0952 19.9484 22.4204 19.9497C23.0755 19.9497 23.7038 20.2099 24.167 20.6732C24.6302 21.1364 24.8904 21.7646 24.8904 22.4197C24.8904 23.0748 24.6302 23.7031 24.167 24.1663C23.7038 24.6295 23.0755 24.8897 22.4204 24.8897C22.0952 24.891 21.773 24.8281 21.4721 24.7046C21.1713 24.581 20.8978 24.3993 20.6674 24.1698C20.437 23.9403 20.2541 23.6676 20.1294 23.3673C20.0046 23.0669 19.9404 22.7449 19.9404 22.4197Z"
            fill="#706F6F" />
    </g>
    <path d="M22 22H45.5" stroke="#FCFCFC" stroke-width="3" />
</svg>
    