<svg width="656" height="125" viewBox="0 0 656 125" fill="none" xmlns="http://www.w3.org/2000/svg">
    <g clip-path="url(#clip0_1157_969)">
        <path
            d="M391.717 118.609C388.598 121.899 384.809 121.704 380.942 121.704C369.227 121.652 357.511 121.704 345.802 121.704C344.848 121.704 343.869 121.704 342.954 121.64C338.778 121.329 336.51 118.324 337.38 114.193C338.585 108.598 339.822 103.01 341.162 97.4477C342.451 92.0666 346.788 87.89 352.994 88.0131C365.438 88.2527 377.894 88.1102 390.37 88.0584C393.238 88.0584 395.693 88.7059 397.459 91.1212C398.103 91.976 398.419 91.7688 398.612 90.8363C398.806 89.9039 399.083 88.8937 399.257 87.89C400.03 84.1214 397.639 81.0974 393.792 81.0845C384.351 81.0521 374.904 81.0845 365.438 81.0845C359.423 81.0845 353.408 81.0542 347.394 80.9938C345.551 80.9938 345.532 80.9485 345.957 79.0965C346.724 75.7941 347.549 72.5046 348.29 69.1957C348.301 68.988 348.355 68.7849 348.449 68.5994C348.542 68.4138 348.673 68.2497 348.833 68.1176C348.993 67.9855 349.178 67.8883 349.378 67.832C349.577 67.7757 349.786 67.7616 349.991 67.7906C367.932 67.7906 385.866 67.7064 403.806 67.8748C409.464 67.9266 412.68 71.8247 414.807 76.6424C416.137 79.6073 416.427 82.9376 415.631 86.0899C412.946 97.3138 410.315 108.559 407.737 119.826C407.415 121.238 406.784 121.769 405.372 121.711C401.416 121.633 397.459 121.678 393.496 121.672C391.318 121.672 391.318 121.672 391.717 119.451C391.733 119.17 391.733 118.889 391.717 118.609ZM372.578 108.313V108.352C377.533 108.352 382.489 108.352 387.451 108.352C389.79 108.352 392.226 106.267 392.271 104.35C392.31 102.55 390.435 101.288 387.67 101.288C378.648 101.288 369.626 101.288 360.604 101.288C359.866 101.264 359.126 101.303 358.394 101.404C356.538 101.702 354.702 104.104 354.863 105.937C355.017 107.653 356.029 108.32 358.639 108.326C363.292 108.326 367.938 108.313 372.565 108.313H372.578Z"
            fill="#005DAE" stroke="#FCFCEF" stroke-width="3" stroke-miterlimit="10" />
        <path
            d="M233.054 67.7449C239.55 67.7449 246.042 67.7449 252.529 67.7449C254.477 67.7177 256.407 68.1232 258.181 68.9324C259.955 69.7417 261.529 70.9346 262.792 72.4261C264.054 73.9176 264.972 75.6707 265.482 77.5603C265.991 79.4499 266.079 81.4292 265.739 83.3569C264.36 91.1273 262.446 98.8071 260.352 106.416C258.76 112.198 254.552 116.025 249.648 119.081C246.708 120.884 243.308 121.784 239.866 121.672C227.57 121.555 215.268 121.432 202.979 121.672C191.837 121.905 187.43 112.069 189.285 104.272C190.864 97.6739 192.218 91.0172 194.016 84.4836C196.426 75.7678 202.541 70.6199 210.919 67.9521C211.789 67.7384 212.686 67.6576 213.58 67.7125C220.076 67.7319 226.565 67.7449 233.054 67.7449ZM224.625 107.497C228.95 107.497 233.274 107.529 237.598 107.497C242.225 107.452 245.453 104.959 246.619 100.497C247.59 96.7026 248.484 92.8886 249.3 89.0552C250.338 84.1793 248.011 81.0841 243.043 81.0064C234.872 80.8833 226.688 80.7538 218.523 81.0582C214.373 81.2071 210.7 83.467 209.146 87.3911C207.487 91.7607 206.419 96.3342 205.969 100.989C205.506 105.153 207.787 107.465 211.995 107.516C216.203 107.568 220.404 107.497 224.625 107.497Z"
            fill="#005DAE" stroke="#FCFCEF" stroke-width="3" stroke-miterlimit="10" />
        <path
            d="M162.136 123.336C157.419 123.854 154.319 121.277 151.973 116.789C146.477 106.28 140.664 95.9388 134.98 85.5265C134.523 84.6911 134.071 83.8493 133.601 83.0205C133.387 82.5308 133.019 82.125 132.553 81.8654C132.088 81.6058 131.55 81.5066 131.023 81.583C130.44 81.6473 129.894 81.9018 129.468 82.3075C129.042 82.7133 128.76 83.248 128.665 83.8299C127.952 86.7697 127.249 89.7074 126.558 92.6428C124.431 101.669 122.285 110.69 120.223 119.736C119.894 121.206 119.295 121.743 117.787 121.678C113.991 121.529 110.189 121.484 106.387 121.49C105.098 121.49 104.873 121.089 105.156 119.898C107.936 108.242 110.69 96.5863 113.418 84.9307C113.933 82.7615 114.449 80.5987 114.932 78.4554C116.988 69.1568 128.13 62.6944 137.145 65.6083C139.897 66.5019 141.805 68.4575 143.209 70.9181C149.224 81.4599 155.211 92.0083 161.169 102.563C161.481 103.296 161.971 103.94 162.594 104.434C164.282 105.509 166.073 104.823 166.615 102.731C167.639 98.7815 168.548 94.8056 169.482 90.8362C171.3 83.1565 173.136 75.4767 174.902 67.7775C175.192 66.5213 175.695 66.0486 177.022 66.081C180.979 66.1652 184.936 66.1328 188.892 66.081C190.033 66.081 190.336 66.3724 190.072 67.5703C186.965 81.6412 183.627 95.6604 180.173 109.66C178.517 116.368 171.119 123.951 162.136 123.336Z"
            fill="#005DAE" stroke="#FCFCEF" stroke-width="3" stroke-miterlimit="10" />
        <path
            d="M82.5759 123.414C77.3303 123.854 74.1984 121.277 71.8463 116.718C66.3881 106.248 60.5818 95.9647 54.9174 85.6042C54.4598 84.7688 54.0152 83.9271 53.5448 83.0982C52.9519 82.0492 52.1271 81.3822 50.8382 81.583C50.2572 81.665 49.7178 81.9329 49.3 82.3469C48.8822 82.7609 48.6081 83.299 48.5183 83.8817C47.9427 86.2474 47.3756 88.6217 46.8171 91.0046C44.568 100.595 42.3061 110.178 40.0957 119.787C39.7542 121.27 39.0969 121.73 37.6212 121.73C33.9866 121.581 30.3457 121.588 26.7047 121.523C24.7715 121.523 24.7199 121.426 25.1646 119.528C28.3867 106.021 31.6087 92.5198 34.7213 79.0058C36.2937 72.2196 42.4543 66.1717 49.2916 65.2198C53.7381 64.6046 58.1073 64.7859 61.3874 68.5934C61.9877 69.2621 62.5209 69.9887 62.9791 70.7627C69.0237 81.3952 75.0534 92.0342 81.0679 102.68C81.229 102.958 81.3773 103.237 81.5513 103.502C81.8557 104.005 82.3037 104.404 82.837 104.648C83.3702 104.892 83.9641 104.968 84.5414 104.868C85.7336 104.732 86.2362 103.839 86.4746 102.829C87.2995 99.5391 88.0986 96.2453 88.8719 92.9472C90.8567 84.5293 92.8544 76.1437 94.7877 67.7322C95.0648 66.5278 95.5803 66.094 96.8112 66.1199C100.716 66.1846 104.622 66.1846 108.527 66.1199C109.938 66.1199 110.215 66.5213 109.893 67.8812C106.929 80.4002 104.003 92.9343 101.116 105.483C100.388 108.643 99.7239 111.803 97.8938 114.549C94.8006 119.082 90.8889 122.455 85.2631 123.291C84.3996 123.362 83.4974 123.355 82.5759 123.414Z"
            fill="#005DAE" stroke="#FCFCEF" stroke-width="3" stroke-miterlimit="10" />
        <path
            d="M446.866 75.3278C473.7 50.0739 505.728 34.7144 541.01 25.6295C538.864 26.3612 536.718 27.0929 534.566 27.8441C510.056 36.4651 487.286 49.4382 467.34 66.1457C458.435 73.4664 450.236 81.6138 442.852 90.48C442.156 91.3447 441.652 92.3494 441.376 93.4263C438.798 102.446 436.221 111.454 433.682 120.487C433.65 120.732 433.57 120.968 433.446 121.181C433.322 121.394 433.156 121.579 432.958 121.726C432.761 121.873 432.536 121.978 432.297 122.036C432.058 122.093 431.81 122.102 431.568 122.06C427.244 121.976 422.913 121.911 418.589 121.944C417.23 121.944 417.172 121.516 417.5 120.357C423.85 98.3152 430.176 76.2667 436.478 54.2116C439.963 42.0466 443.451 29.8773 446.944 17.7037C447.359 16.278 447.591 14.8047 447.633 13.3199C447.717 10.3088 445.797 8.32738 442.658 8.10722C440.864 8.0518 439.068 8.20828 437.31 8.57345C436.665 8.68353 435.712 9.17565 435.66 7.92591C435.628 7.01289 434.945 5.82143 436.775 5.56242C443.825 4.55226 450.855 3.41908 457.893 2.32474C460.657 1.89737 463.428 1.51533 466.18 1.02968C467.359 0.822466 467.546 1.08795 467.217 2.23408C464.781 10.7945 462.423 19.3743 460 27.9347C455.605 43.4324 451.199 58.9257 446.783 74.4147C446.706 74.5583 446.673 74.7215 446.688 74.8839C446.702 75.0463 446.765 75.2007 446.866 75.3278Z"
            fill="#005DAE" stroke="#FCFCEF" stroke-width="3" stroke-miterlimit="10" />
        <path
            d="M570.498 18.746C570.183 18.1438 569.59 18.3446 569.106 18.3316C556.02 17.9531 542.927 18.8203 530.003 20.9218C519.048 22.696 508.273 25.2991 498.04 29.7412C489.424 33.4839 481.517 38.2822 475.524 45.7547C474.409 47.1469 473.429 48.6427 472.302 50.0414C473.375 46.626 475.143 43.4725 477.496 40.7816C483.005 34.1444 490.062 29.6894 497.846 26.3028C508.209 21.77 519.112 19.5619 530.312 18.3446C542.202 17.0495 554.117 17.1725 566.033 17.7488C568.185 17.8524 570.331 18.1115 572.522 18.3964C570.001 19.5202 567.582 20.8612 565.291 22.4046C559.649 26.2153 555.137 31.4891 552.236 37.667C544.502 54.3863 531.679 65.1678 514.421 70.8466C512.9 71.3517 512.662 71.8892 513.074 73.4368C515.246 81.5763 517.45 89.7093 519.016 97.9978C519.106 98.4964 519.241 98.995 519.364 99.4936L519.931 99.4547C519.931 96.1264 519.847 92.7916 519.931 89.4633C520.105 83.5772 521.181 77.7753 521.806 71.928C521.89 71.1186 522.251 70.8402 523.018 70.8466C526.555 70.8466 530.106 70.9049 533.625 70.8466C534.913 70.8466 534.785 71.6367 534.694 72.4396C534.05 77.9113 533.444 83.3829 532.761 88.8546C531.545 98.9043 530.314 108.948 529.069 118.984C528.553 123.077 529.069 122.306 525.389 122.365C522.592 122.41 519.795 122.293 517.012 122.365C516.808 122.399 516.598 122.391 516.398 122.339C516.198 122.287 516.01 122.193 515.849 122.064C515.687 121.934 515.554 121.772 515.459 121.587C515.364 121.402 515.309 121.199 515.297 120.992C513.441 112.503 511.038 104.156 509.33 95.6213C509.272 95.3299 509.162 95.0385 508.95 94.3262C508.589 103.495 507.468 112.146 506.372 120.797C506.198 122.131 505.65 122.455 504.439 122.423C501.275 122.345 498.111 122.3 494.947 122.358C493.606 122.358 493.174 121.95 493.348 120.616C494.064 115.151 494.721 109.679 495.391 104.214C496.5 95.1162 497.634 86.0249 498.691 76.9205C499.064 73.7411 498.981 73.7282 495.739 73.7282C493.042 73.8334 490.341 73.6663 487.678 73.2296C489.34 73.113 490.996 73.0159 492.652 72.8734C494.019 72.7569 495.391 72.6533 496.745 72.4202C497.769 72.2453 499.013 72.4525 499.593 71.1251C499.664 70.9503 500.16 70.8855 500.456 70.8985C506.024 71.2158 510.806 68.7422 515.671 66.5924C523.25 63.2381 529.043 57.5722 534.475 51.5307C539.631 45.7936 544.567 39.8362 549.684 34.0473C553.763 29.4304 558.196 25.202 563.494 21.9837C565.485 20.7819 567.626 19.85 569.86 19.2123C570.144 19.154 570.402 19.0763 570.498 18.746Z"
            fill="#6BC62C" />
        <path
            d="M596.681 92.8177C595.244 99.7981 593.311 106.63 591.526 113.5C590.881 116.012 590.192 118.512 589.593 121.037C589.572 121.245 589.51 121.447 589.41 121.63C589.309 121.813 589.173 121.974 589.009 122.103C588.846 122.232 588.658 122.326 588.457 122.38C588.255 122.434 588.046 122.446 587.84 122.416C584.25 122.345 580.661 122.326 577.071 122.339C576.124 122.339 575.783 121.963 575.712 121.044C574.664 109.651 573.589 98.2613 572.49 86.8733C572.026 82.0168 571.581 77.1603 571.046 72.3232C570.917 71.1447 571.265 70.8533 572.374 70.8727C575.86 70.9245 579.34 70.931 582.826 70.8727C583.993 70.8727 584.379 71.2354 584.411 72.4074C584.573 77.5877 584.759 82.768 584.901 87.9806C585.011 92.0018 585.127 96.023 585.114 100.245C585.303 100.084 585.457 99.8861 585.568 99.6635C585.678 99.441 585.743 99.1982 585.758 98.9498C587.962 89.9944 590.649 81.1815 593.221 72.3362C593.549 71.2159 594.065 70.8339 595.212 70.8663C598.06 70.944 600.915 70.944 603.757 70.8663C604.988 70.8339 605.336 71.2224 605.432 72.4657C606.141 81.6607 606.637 90.8621 606.657 100.089C606.652 100.209 606.672 100.328 606.716 100.439C606.759 100.551 606.824 100.652 606.908 100.737C607.553 97.9397 608.139 95.1229 608.874 92.3515C610.678 85.5977 612.56 78.8698 614.377 72.116C614.4 71.9233 614.462 71.7374 614.559 71.5695C614.656 71.4016 614.786 71.2551 614.941 71.1389C615.096 71.0228 615.272 70.9393 615.46 70.8935C615.648 70.8478 615.843 70.8407 616.033 70.8727C619.513 70.9245 622.999 70.9375 626.479 70.8727C627.768 70.8727 627.826 71.3131 627.491 72.3621C624.312 82.2909 621.154 92.2371 618.018 102.2C616.123 108.158 614.218 114.111 612.302 120.059C611.548 122.41 611.535 122.416 609.002 122.404C605.941 122.404 602.88 122.332 599.819 122.352C598.756 122.352 598.299 121.983 598.266 120.895C598.015 112.95 597.248 105.03 597.164 97.0785C597.178 95.6437 597.016 94.2126 596.681 92.8177Z"
            fill="#6BC62C" />
        <path
            d="M275.412 67.7449C277.68 67.7449 279.923 67.8096 282.217 67.7125C283.448 67.6607 283.983 68.1269 284.331 69.2795C287.768 80.6286 291.237 91.9734 294.738 103.314C294.829 103.618 294.906 103.929 295.015 104.22C295.338 105.095 295.383 106.195 296.523 106.461C297.812 106.759 298.605 105.923 299.314 105.03C302.025 101.576 304.733 98.1228 307.44 94.6693C314.069 86.1521 320.696 77.6327 327.32 69.1112C327.623 68.6556 328.04 68.2875 328.528 68.0434C329.016 67.7992 329.56 67.6874 330.104 67.719C334.615 67.7967 339.177 67.719 343.714 67.7578C344.223 67.7578 344.906 67.4988 345.19 68.0039C345.473 68.509 344.842 68.9363 344.546 69.2989C335.695 80.851 326.839 92.3943 317.976 103.929C315.141 107.62 312.325 111.337 309.405 114.937C304.823 120.61 298.972 123.536 291.574 123.038C288.946 122.921 286.425 121.962 284.378 120.302C282.332 118.642 280.868 116.367 280.2 113.81C275.973 99.2668 271.728 84.7275 267.466 70.1925C267.421 70.0371 267.363 69.8882 267.318 69.7393C266.751 67.7125 266.758 67.7125 268.923 67.706L275.412 67.7449Z"
            fill="#005DAE" stroke="#FCFCEF" stroke-width="3" stroke-miterlimit="10" />
        <path
            d="M29.4757 31.1206C31.409 31.1206 33.3809 31.1724 35.3335 31.1206C36.5579 31.0688 36.8866 31.3926 36.5837 32.6682C34.006 43.5403 31.5057 54.4318 28.9409 65.3104C24.7479 83.1521 20.5377 100.99 16.3103 118.823C16.1749 119.386 16.0009 119.943 15.8914 120.519C15.873 120.69 15.8209 120.856 15.7381 121.007C15.6552 121.157 15.5434 121.29 15.409 121.397C15.2746 121.503 15.1204 121.582 14.9553 121.628C14.7903 121.674 14.6178 121.687 14.4479 121.665C10.2763 121.601 6.10907 121.54 1.94612 121.484C0.45751 121.484 1.06971 120.461 1.22437 119.807C2.85475 112.794 4.53022 105.788 6.19282 98.7815C11.3482 76.9293 16.5035 55.0751 21.6589 33.2186C22.0198 31.671 22.5482 30.9458 24.2366 31.1077C25.925 31.2695 27.7358 31.1206 29.4757 31.1206Z"
            fill="#005DAE" stroke="#FCFCEF" stroke-width="3" stroke-miterlimit="10" />
        <path
            d="M549.136 122.352C545.392 122.352 541.641 122.352 537.897 122.352C536.821 122.352 536.557 122.021 536.692 120.959C537.62 113.552 538.484 106.131 539.386 98.7165C540.398 90.4087 541.448 82.1073 542.44 73.7994C542.788 70.879 542.737 70.8726 545.662 70.8726H566.084C568.101 70.8726 568.075 70.8726 567.818 72.9511C567.457 75.8456 567.102 78.7401 566.812 81.6346C566.709 82.6512 566.252 82.9944 565.285 82.9815C562.385 82.9815 559.485 83.0203 556.579 82.9815C555.374 82.9815 554.858 83.4541 554.762 84.6262C554.662 86.0535 554.482 87.4739 554.22 88.8805C553.956 90.1756 554.459 90.59 555.696 90.5706C558.119 90.5382 560.549 90.6353 562.978 90.5706C564.048 90.5706 564.467 90.7778 564.267 92.0016C563.854 94.773 563.519 97.5704 563.339 100.368C563.236 101.935 562.533 102.31 561.129 102.31C558.809 102.246 556.489 102.349 554.169 102.31C553.073 102.31 552.532 102.647 552.455 103.826C552.364 105.192 552.055 106.545 551.894 107.912C551.649 109.951 551.668 109.971 553.666 109.997C556.36 110.035 559.054 110.094 561.741 110.035C562.997 110.003 563.229 110.411 563.03 111.615C562.598 114.711 562.269 117.819 562.005 120.933C561.908 122.118 561.399 122.449 560.304 122.436C556.553 122.397 552.809 122.436 549.059 122.436L549.136 122.352Z"
            fill="#6BC62C" />
        <path
            d="M654.131 87.9288C653.324 86.6562 652.346 85.5014 651.225 84.4968C649.472 83.0593 647.558 82.1657 645.245 83.0593C642.931 83.9529 642.325 86.0056 643.627 88.0518C644.504 89.4181 645.799 90.3505 646.985 91.3996C654.834 98.3346 655.807 107.653 649.466 116.096C643.769 123.686 634.438 125.13 626.118 121.445C625.863 121.38 625.641 121.219 625.501 120.995C625.361 120.77 625.312 120.5 625.364 120.241C625.931 115.617 626.492 110.992 627.046 106.364C627.046 106.105 627.098 105.755 627.426 105.794C627.633 105.794 627.858 106.066 628.006 106.267C628.944 107.621 630.156 108.76 631.564 109.608C633.239 110.554 634.992 110.981 636.88 110.333C639.632 109.401 640.502 106.63 638.639 104.389C637.607 103.185 636.468 102.077 635.237 101.08C629.115 95.9841 627.633 89.4246 630.429 81.9132C633.181 74.5054 639.89 69.7784 647.255 69.9467C650.006 70.0649 652.699 70.7783 655.149 72.0383C655.646 72.2778 656.064 72.5304 655.994 73.2103C655.465 77.9956 655.021 82.7873 654.131 87.9288Z"
            fill="#6BC62C" />
        <path
            d="M469.337 124.029C467.675 124.067 465.555 122.636 464.311 119.923C462.427 115.546 460.93 111.011 459.839 106.37C457.841 98.6841 456.017 90.9525 454.039 83.2663C453.816 82.6572 453.8 81.9907 453.995 81.3718C454.19 80.7529 454.584 80.2166 455.115 79.8473C457.693 77.6651 460.187 75.3729 462.635 73.0417C463.737 71.9992 464.098 72.3036 464.433 73.6051C466.554 81.8094 468.68 90.0071 470.878 98.2114C471.986 102.349 472.965 106.539 474.596 110.515C476.439 115.015 478.301 115.494 482.032 112.457C484.972 110.038 487.546 107.202 489.675 104.039C490.887 102.252 491.609 103.664 492.569 104.169C493.858 104.868 493.213 105.574 492.569 106.286C488.515 111.227 484.578 116.297 479.551 120.325C476.707 122.764 473.077 124.08 469.337 124.029Z"
            fill="#005DAE" stroke="#FCFCEF" stroke-width="3" stroke-miterlimit="10" />
    </g>
    <defs>
        <clipPath id="clip0_1157_969">
            <rect width="656" height="125" fill="white" />
        </clipPath>
    </defs>
</svg>
    